<svg width="742" height="686" xmlns="http://www.w3.org/2000/svg">
 <!-- Created with SVG-edit - http://svg-edit.googlecode.com/ -->
 <g>
  <title>Dog</title>
  <g id="Dog">
   <path id="svg_2" d="m149,672l1,-1l-1,1zm-18,1c-1,-1 -1,-3 0,-3c0,1 1,3 0,3zm-4,-3l2,-2c0,1 -1,2 -2,2zm195.000031,1c-1,-1 -2,-1 -5,-1c-2,0 -4,1 -6,2c0,-5 3,-5 5,-5c3,0 5,2 6,4zm-36,-7c-1,1 -2,0 -3,0l3,0zm-5,0c0,1 -1,1 -1,0l1,0zm15,0c1,-1 3,-1 4,-1c-1,0 -3,1 -4,1zm56,-3c1,1 2,3 3,5c-2,-1 -4,-4 -4,-6c1,0 2,0 1,1zm-38,1c-1,0 -2,-1 -3,-2c1,0 3,-1 4,-2c0,1 0,3 -1,4zm-97.000015,-10c-1,0 -3,0 -4,-1c1,0 3,1 4,1zm-26.000015,-2l-1,0l1,0zm-37,5l0,-5c0,1 1,3 0,5zm198.000031,-3c0,2 -2,-2 -2,1c0,2 2,-2 2,1c0,2 -2,0 -2,3c0,1.200012 0.359955,1.320007 0.429962,1.219971c0.050049,-0.059998 -0.029968,-0.219971 -0.429962,-0.219971c-1,-1 -1,-1 -1,-3c0,-3 2,-3 2,-5c0,-3 -1,-2 -2,-2c0,0 2,0 2,-1c0,1 1,2 1,5zm33,-9l0,3c-1,0 -2,2 -3,3c0,-1 -1,-2 -1,-8c1,0 3,1 4,2zm-230.000031,2c-1,1 -2,1 -3,0l1,-7c1,2 1,5 2,7zm228.000031,-8c-1,1 -1,2 -2,2c-3,-12 -5,-9 -9,-14c6,-2 8,8 11,12zm-22,-12c3,2 6,5 8,5c2,2 3,3 4,5c1,3 3,8 3,10c0,3 1,2 2,2c1,-2 -3,2 -3,4s1,2 3,3c-1,0 -2,0 -3,1c0,0 1,1 2,1l-2,0c0,0 -1,8 -4,8s-4,-2 -4,-2s1,0 1,-2c0,-3 -2,-4 -5,-4c-2,0 -4,1 -4,4c0,2 1,1 1,2c-2,-2 -5,-4 -5,-7c0,-2 1,0 2,-1c-1,-1 -4,-2 -4,-4c0,-3 2,1 2,-1c0,-3 -2,-3 -3,-3l2,-2c0,0 -2,1 -2,-1c0,-3 2,-3 2,-5c0,0 -1,0 -1,-2c0,-3 2,-1 2,-3c0,-3 -3,-4 -4,-6c2,0 2,-1 2,-2l8,0zm35,2c3,0 3,-2 4,-2c1,3 0,8 0,11c0,2 -2,1 -2,4c0,2 1,1 2,1c-1,1 -3,3 -5,4c0,1 2,2 2,3c-1,0 -3,1 -6,1c0,-1 1,-1 1,-4c0,-2 -2,-1 -2,-3c0,-3 3,-2 3,-4c0,-3 -1,-2 -3,-4c1,-1 1,-3 0,-5c0,-1 -2,-2 -2,-4c0,0 -1,1 2,1c2,0 1,-2 3,-2c3,0 1,3 3,3zm-223.000031,1c2,4 5,12 5,14c0,3 -2,6 -3,8l-9,9c0,-5 1,-10 -1,-15c0,2 -3,-4 -1,13c-1,0 -3,-2 -3,-4c0,-3 2,1 2,-1c0,-3 -1,-4 -3,-6c1,-1 1,0 2,1c2,-2 2,-8 2,-10c0,-3 0,-6 -1,-9c-1,1 -2,1 -3,2c2,-2 6,-3 8,-6c1,1 4,2 5,4zm137.000031,-6c0,0 0,-2 -1,-2l1,2zm-155.000031,-1c-1,0 -2,1 -2,2c-1,-1 -2,-3 -1,-3c1,1 2,1 3,1zm260.000031,6c-2,-1 -4,-3 -5,-5c1,0 3,-2 3,-3c0,0 -1,6 2,8zm-272.000031,-6c1,1 1,4 0,6c1,1 2,2 4,2c0,0 0,-1 -1,-2c1,-1 2,0 2,3c0,2 -2,5 -2,7c0,3 1,8 1,11c0,2 6,10 6,12c0,3 -6,10 -8,10c-3,0 -12,-6 -15,-6s-1,1 -4,3c0,1 -2,0 -4,2c0,1 2,2 4,3c-9,0 -12,-1 -12,-7c0,-3 8,-31 12,-46c5,1 11,2 17,2zm201.000031,-2c0,0 1,1 2,1c-4,1 -5,8 -5,9c0,3 2,5 2,7c0,3 -2,0 -2,3c0,2 2,-2 2,1c0,2 -2,1 -2,4c0,2 2,-2 2,1c0,2 -1,0 -2,1c1,2 1,4 1,7s-4,10 -7,10c-2,0 -1,-2 -2,-3c-2,1 -4,1 -6,1c1,-4 0,-8 0,-12l-2,2l-1,-4c0,-2 2,-2 3,-8c0,-3 0,-7 1,-12c1,0 0,-1 3,-1c2,0 1,2 2,2l2,-2c-1,-1 -2,-2 -3,-2c9,3 5,-9 15,-6c-1,0 -2,0 -3,1zm-32,0c0,-1 0,-2 1,-2c0,0 0,1 -1,2zm76,-2c0,0 0,1 -2,1c-3,0 -3,-1 -4,-2l6,1zm-67,0c-5,13 -6,22 -6,39c-1,0 -1,1 -6,1c-1,-2 -3,-5 -3,-7c0,-3 2,0 2,-2c0,-3 -2,-3 -1,-5c0,0 0,-1 -2,-1c-3,0 -3,2 -3,3l0,-8c0,-2 2,-5 3,-8c1,2 2,5 2,8c0,2 -1,3 -2,4c1,1 0,1 3,1c5,0 2,-3 3,-6c1,-7 4,-13 8,-20c0,1 1,2 2,1zm-7,-1c1,-1 2,-1 3,-1c-1,1 -2,1 -3,1zm145,-1c1,0 3,-2 4,-2c-1,1 -3,2 -4,2zm-340.000031,-2c-2,3 -5,10 -5,14c0,2 -3,2 -3,5c-1,6 -1,17 -1,20c0,2 -3,2 -4,3c0,0 1,0 1,-2c0,-3 -2,-7 -4,-10c-2,0 -4,1 -4,4c0,2 1,3 2,4l-4,1c1,-1 0,-3 0,-5c0,-3 -2,1 -2,-1c0,-3 1,-9 2,-13c4,-1 8,-3 12,-6c-1,-1 0,-1 -3,-1c-2,0 -2,1 -3,2l-5,-1c2,-6 6,-11 10,-17c3,0 4,6 11,3zm235.000031,-2c-1,-1 -2,-1 -2,-2c1,1 2,1 2,2zm-28,-2l7,0c-2,0 -5,1 -7,0zm-212.000031,-1c-1,0 -2,0 -3,-1c0,0 2,0 2,-1c0,0 0,1 1,2zm34,3c-2,-2 -4,-3 -6,-5c2,-1 4,0 6,1c0,1 1,3 0,4zm59.000015,-5c-2,-1 -8,-2 -9,-3c4,1 7,2 9,3zm-68.000015,-3l0,-1l0,1zm-45,4c-2,1 -5,4 -5,7c0,2 2,-2 2,1c0,2 -3,7 -3,11c-1,7 1,14 0,21c-5,-4 -5,-13 -12,-12l0,-17c1,0 2,0 2,-3c0,-2 -2,1 -2,-1c0,-3 5,-8 8,-8l3,0c0,-1 1,0 1,-3c0,-2 -1,-1 -2,-2c3,1 6,4 8,6zm39,-6c1,0 3,-1 4,0c-1,1 -3,0 -4,0zm-23,-3c-3,4 -7,2 -11,6c0,0 -1,0 -1,-1c-3,-3 -1,-1 -5,-4c3,-2 6,-3 8,-3c3,0 6,1 9,2zm4,-6l-3,0l3,0zm-7,-1c1,-1 3,-1 4,-1c-1,1 -3,1 -4,1zm-16,1c2,-1 4,-1 7,-1c-1,0 -3,0 -7,1zm408.000031,-17l2,-2c0,1 -1,2 -2,2zm-244.000015,-5c-1,0 -3,1 -3,0l3,0zm6.000015,1c0,-1 2,-2 3,-1c-1,1 -2,1 -3,1zm-38.000015,-1c-1,0 -3,1 -4,0l2,-2c0,2 1,2 2,2zm-1,-2c1,-2 2,-1 3,-1c0,0 -1,1 -3,1zm84.000015,-7c-4,1 -8,1 -12,3c-1,-1 -2,-1 -2,-2c0,0 -1,1 2,1c2,0 5,-2 8,-3l4,1zm0,-2c1,0 2,-1 3,-1s-1,1 -3,1zm-34,-1c-6,2 -15,6 -18.000015,6c-2,0 -11,-3 -17,-3c1,-1 1,-2 1,-3c5,1 10,2 15,4l7.000015,-1c-1,-1 -3,-1 -3,-2c2,1 2,2 4,2c3,0 4,-3 7,-4l4,1zm1,-1c0,-1 0,-2 1,-2c-1,1 0,2 -1,2zm-14,-1c1,0 3,-1 5,0l-5,0zm-24.000015,1l2,-2c0,1 -1,2 -2,2zm6,-2l0,-1l0,1zm-23,16c-1,1 0,1 -3,1c-2,0 -13,-6 -18,-10c-3,-3 -2,-6 -3,-8c5,3 15,13 24,17zm52.000015,-18c0,1 -1,1 -1,0l1,0zm-35.000015,1c-1,-1 -3,-1 -4,-2c1,1 3,1 4,2zm5,-3c-2,0 -4,-1 -6,-1c2,0 4,0 6,1zm26.000015,0c-5,0 -15.000015,2 -19.000015,3l0,-2c0,-1 -2,-1 -3,-3c13.000015,1 18.000015,1 22.000015,2zm50,-3c1,0 3,-1 5,-1c-1,1 -3,1 -5,1zm-17,6c-4,2 -9,2 -13,2c-3,0 -5,-1 -7,4c0,-1 0,-2 -1,-3c-1,1 -1,2 -2,2l0,-3c4,-2 9,-3 13,-4c-1,-1 -2,-2 -4,-2c-3,0 -6,2 -10,4c0,-1 -2,-1 -3,-1c6,-2 16,-5 18,-5c3,0 2,3 5,3c2,0 12,-3 19,-3l-15,6zm45,-7c1,0 3,-1 4,-1c-1,1 -3,1 -4,1zm-7,0c-6,2 -13,5 -21,7c1,-1 10,-3 10,-8c2,0 4,-1 6,-1c3,0 4,1 5,2zm64,-3l-4,0l4,0zm-190.000015,0c0,0 1,-1 2,-1c0,0 -1,2 -2,1zm214.000015,-1c-1,0 -3,1 -4,1l2,-2c0,0 1,1 2,1zm-67,-1l-9,3c1,0 3,-2 5,-3l4,0zm-60,1c1,0 3,-1 4,-1c-1,1 -3,1 -4,1zm-59.000015,25c-6,2 -14,-5 -20,-7c-1,1 0,3 0,4c-2,-2 -4,-7 -6,-7c-3,0 -1,1 -1,2c0,-1 0,-3 -1,-4c0,0 -1,1 -1,2c-3,-1 -6,-6 -8,-9c-2,-4 -5,-7 -7,-9c10,7 30,29 44,28zm157.000015,-23c-6,5 -11,0 -14,2c-2,3 -5,7 -7,7c-3,0 -10,-4 -16,-6c6,-3 14,-9 24,-9c5,0 6,2 13,6zm-192.000015,-4c0,-1 0,-2 1,-2c0,1 0,2 -1,2zm316.000046,-1c0,-1 0,-2 1,-2c0,0 0,1 -1,2zm-300.000046,1l0,4c0,0 -1,0 -2,1c0,-3 -2,-6 -3,-9c2,1 3,3 5,4zm48.000015,-4c1,-1 2,-1 3,-1c-1,1 -2,1 -3,1zm-74.000031,13c0,3 -1,3 -2,3c-2,-5 -4,-11 -7,-17c2,2 9,10 9,14zm328.000061,-14c1,-1 2,0 3,0c-1,1 -2,1 -3,0zm-329.000061,3c-1,-1 -2,-3 -3,-4c1,1 3,2 3,4zm18.000015,-5c0,1 1,3 1,4c-1,-1 -2,-3 -4,-4l3,0zm56.000015,2c-3,0 -7,0 -10,1c2,1 5,1 7,1c3,0 0,3 3,3c2,0 2,-1 4,-1c1,0 1,-2 1,-2c0,-3 10,0 15,-1c2,0 3,-2 5,-2c4,0 3,0 4,5c1,0 2,0 3,1c-1,-1 0,-1 -3,-1c-2,0 -6,2 -8,4c-3,1 -8,2 -12,3l-15,-1c8,0 20,-4 29,-5c-1,-1 -2,-2 -5,-2c-2,0 -18,1 -25,4c-2,0 -2,3 -5.000015,3c-2,0 -5,-3 -7,-3c0,0 0,-1 -1,-2c-6,-1 -6,-7 -10,-5c0,-1 1,-2 1,-3c17,1 23.000015,2 29.000015,3zm67,-3c-1,0 -3,1 -4,0c1,0 2,-1 1,-2c1,0 2,2 3,2zm66,1c-1,0 -2,1 -6,1c1,-1 2,-3 3,-5c0,1 2,2 3,4zm-57,-3c0,1 -1,1 -2,2c0,1 1,3 1,3c-1,0 -3,0 -5,-1l3,0c0,-2 1,-4 1,-6c0,1 1,2 2,2zm-103.000015,0c1,-2 3,-1 4,0l-4,0zm152.000015,2c0,-1 1,-3 0,-4l-2,2c0,-1 2,-2 4,-3c-1,4 -1,5 -2,5zm-71,-3c-1,0 -2,1 -3,2l-2,-2c1,0 3,-2 4,-3c0,1 1,2 1,3zm-24,-2c-1,0 -3,0 -3,-1c1,0 3,0 3,1zm-21,-1c-1,0 -3,1 -4,0l4,0zm61,2l0,-3l0,3zm18,0c-1,0 -2,2 -3,3l0,-5c0,-3 1,-2 2,-2c-1,1 0,3 1,4zm-23,-2c0,-1 0,-2 1,-2c0,0 -1,1 -1,2zm-96.000015,0l-1,1c-1,0 -3,-1 -4,-3c1,0 3,1 5,2zm159.000015,-1c1,-1 2,-2 3,-2c0,1 -2,2 -3,2zm-77,0c1,-1 1,-2 2,-2c-1,1 -1,2 -2,2zm208.000031,-1l-4,0c0,1 1,2 2,2c-1,0 -3,0 -4,1c0,0 1,1 2,1c-1,1 -4,2 -4,5c0,2 1,1 2,1c-1,1 -2,1 -3,1c0,-5 -1,-4 -1,-4c0,-3 3,-6 4,-9c2,1 4,1 6,2zm-248.000031,-2c0,2 4,4 7,5c-5,1 -6,0 -7,0c0,0 1,0 2,-1c-2,-1 -3,-3 -3,-4c-1,-1 -3,0 -3,1l0,-3c0,0 1,0 2,1c0,0 1,-1 1,-2c1,1 1,0 1,3zm-19,-2c0,0 1,-1 2,-1c0,1 -1,1 -2,1zm134,-1c-1,0 -3,0 -3,-1c1,1 2,1 3,1zm-58,1c1,-1 1,-2 2,-2c-1,1 -1,2 -2,2zm-146.000031,-2l-1,0l1,0zm372.000061,-1c0,1 -1,1 -1,0l1,0zm-343.000046,4c-2,0 -5,-1 -7,-2c1,-1 2,-1 3,-2c1,2 3,3 4,4zm142.000015,-3c0,-1 1,-2 2,-1c0,0 -1,0 -2,1zm-88,2c1,-2 2,-4 3,-5c0,1 -2,3 -3,5zm-11,-3c-1,0 -2,-1 -3,-1c0,0 1,0 2,-1c0,0 1,1 1,2zm-41.000015,1c-1,-1 -2,-2 -3,-2c0,0 2,0 2,-1c0,1 1,2 1,3zm100.000015,-1c0,-1 1,-3 2,-4c0,1 -1,3 -2,4zm-108.000015,-2c0,-1 0,-2 1,-2c0,0 0,1 -1,2zm-25.000015,2c0,-1 -1,-3 -2,-4c1,0 2,2 2,4zm387.000061,-4c-2.200073,0 -2.790039,0.539978 -2.940002,0.429993c-0.059998,-0.039978 -0.059998,-0.159973 -0.059998,-0.429993l7,0c-1,1 -2,0 -4,0zm-180.000031,2c-1,1 -2,2 -3,2c0,0 -1,-1 -2,-1c1,-2 3,-4 4,-5c0,1 0,3 1,4zm-134,-3l2,2c-2,-1 -2,-2 -3,-3c0,0 2,0 2,-1c0,0 0,1 -1,2zm-73.000031,-2c-1,1 -2,0 -3,0l3,0zm69.000031,2l0,-3c1,1 1,2 0,3zm94,-3l-2,0c0,1 -1,1 -1,3c0,3 2,4 4,5c1,0 1,-2 2,-4c1,4 -3,15 -8,11c-1,1 0,3 -3,4c0,-1 0,-2 1,-3c-1,-1 -1,-2 -2,-3c-1,0 -2,2 -3,2l0,-3c3,-3 6,-8 10,-13c0,0 1,1 2,1zm220.000031,1c0,-1 2,-3 3,-3s-1,1 -3,3zm-331.000046,2c1,-1 1,-3 2,-5c0,2 0,4 -2,5zm156.000015,-1c-1,-1 -1,-2 -2,-3c1,0 1,-2 3,-2c0,0 1,2 -1,5zm-72,1c0,-1 1,-3 0,-5c0,0 1,0 2,1c1,-1 1,-2 2,-3c0,2 -3,5 -4,7zm-92.000015,2c1,-3 3,-7 4,-10c-1,3 -3,7 -4,10zm261.000015,-10c1,0 2,-1 3,0l-3,0zm-245.000015,2l0,1c0,0 -1,-1 -2,-1c1,-1 1,-4 2,-4c2,0 0,1 0,4zm112.000015,-3c-1,1 -2,1 -3,0c0,0 1,-1 1,-2l2,2zm37,-2c0,-1 0,-3 1,-3c0,1 -1,2 -1,3zm-157.000015,5c0,-1 -1,-1 -1,-3c0,-3 3,-4 3,-5c-1,4 -1,6 -2,8zm107.000015,-5c0,-1 1,-3 1,-4c0,1 -1,3 -1,4zm47,2c0,2 -2,0 -2,1c0,-2 1,-3 0,-4c-2,2 -2,3 -2,6c0,2 -4,2 -4,5c0,0 3,0 2,10c1,1 2,0 3,0l-2,2c1,1 2,1 3,1c-1,0 -3,0 -4,1c1,1 2,2 3,2c-6,5 -13,1 -18,5c-4,0 -6,2 -9,7l-3,0c2,-3 5,-7 5,-9c0,-1 12,-21 21,-21c0,-1 -1,-3 -2,-4c3,-2 7,-4 7,-7c0,-2 -1,-1 -2,-1c1,0 2,-1 4,-1c1,2 0,4 0,7zm-34,-2c0,0 0,-1 -1,-2c1,-1 4,1 4,-1c0,2 -3,2 -3,3zm295.999969,-4l0,-3c0,1 1,3 0,3zm-305.999969,-3c0,0 -1,1 -1,0l1,0zm-106.000015,0c0,0 1,-1 1,-2c0,1 0,2 -1,2zm415.999985,-1l-3,0l2,-2c0,0 1,1 1,2zm4,0c-1,-1 -1,-3 0,-3l0,3zm-304.999969,1c0,2 -5,3 -6,4c2,-3 4,-6 6,-8c1,1 0,1 0,4zm296.999969,-5c0,0 0,1 -1,0l1,0zm26,-1c0,0 2,1 1,2c0,0 -1,0 -1,-2zm-511,2c-1,0 -2,-1 -2,-2l2,2zm541,-2c-1,0 -3,0 -3,-1c1,0 2,1 3,1zm-12,-1l-1,0l1,0zm-301.999969,0c1,-1 1,-2 2,-2c0,3 -1,4 -1,7c0,2 -3,1 -3,2l-4,0c2,-3 3,-7 5,-10c0,1 0,2 1,3zm-31,0c1,-1 1,-3 2,-3c0,1 -1,3 -2,3zm-54,-1c-1,1 -2,1 -3,0c1,-1 1,-2 2,-3c0,1 1,2 1,3zm-56,3c1.619965,-0.809998 1.929993,-2.280029 1.98999,-2.27002c0.01001,0 0.01001,0.080017 0.01001,0.27002c1,1 3,0 4,0c-1,1 -1,3 -2,4c1,1 0,2 3,2c2,0 2,-1 2,-2c-1,2 0,3 0,5c0,3 2,6 5,9c-2,1 -4,5 -4,7c0,3 2,4 2,6c0,3 -1,6 -3,9c0,0 -1,-1 -2,-1l3,-3l-2,-2c1,-1 2,-3 2,-5c0,-3 0,-3 -2,-4c1,-1 1,-4 2,-6l-2,-2c-1,1 -1,2 -1,3l-3,0c1,-2 2,-5 2,-5l-2,-2c-1,2 -2,5 -3,8c-1,-3 -1,-6 -1,-9c-1.000015,0 -2.000015,0 -2.000015,3c0,2 -3,15 -3,17c0,3 0,3 1,4c1,0 1,-2 4.000015,-3c0,1 0,4 1,5c-5.000015,-2 -10.000015,-3 -15.000015,-6c1,-3 2,-7 3,-11c0,0 1,0 2,1c-2,2 -3,5 -3,8c0,2 0,2 1,3c6,-4 5,-17 8,-23c-1,-1 -1,-2 -2,-3c-1,1 -3,3 -5,2c0,-2 3,-9 7,-6c0,0 1,2 1,-1c0,-2 -2,-2 -3,-2c0,-1 3,-3 2,-4c2,2 2,5 3.000015,6zm-7.000015,-6c-2,2 -3,5 -5,6c-1,-2 0,-3 0,-5c0,-3 2,-1 2,-2c0,1 2,1 3,1zm119.000015,-1c1,-1 1,-2 2,-3c0,1 -1,3 -2,3zm-121.000015,-1c0,0 0,-1 -1,-2c1,-1 3,0 4,0c-1,0 -2,1 -3,2zm468.999985,2c0,-2 0,-5 4,-5c-1,2 -2,4 -4,5zm-371.999969,-5c0,0 0,-1 1,-2c0,1 0,2 -1,2zm55,-1c0,2 1,1 2,1c-1,1 -3,1 -4,2c0,-1 2,-3 3,-5c0,0 -1,-1 -1,2zm-149.000015,0c-1,0 -2,-2 -1,-2c0,0 0,1 1,2zm133.000015,-2c1,0 3,-1 4,0c-1,1 -3,0 -4,0zm281.999969,0c0,-2 1,-2 2,-2c-1,1 -2,0 -2,2zm-407.999969,-1c-1,3 0,6 -2.000015,8c-2,-3 -1,-7 -4,-7c1,-1 3,-2 4,-4c0,0 -1,5 2.000015,3zm129,-5c0,0 -3,4 -3,0c0,0 0,1 1,2l2,-2zm165.000031,0c0,2 -8,16 -12,23c-2,4 -5,9 -8,13c1,2 0,2 0,5c0,2 -6,7 -10,9c3,-3 3,-6 6,-10c0,0 0,-1 -2,-1c-3,0 -2,1 -2,2c1,-4 3,-11 3,-13c0,-3 12,-15 12,-17c0,-3 9,-8 12,-13c0,0 1,-1 1,2zm52.999939,0c1,-1 2,-3 3,-3c-1,1 -2,3 -3,3zm-434,-2c3,5 6,11 9,15c1,1 3,1 5,1c2,4 7,15 11,18c1,2 2,4 1,6c1,1 2,1 2.999985,1c0,0 1,0 1,-2c0,-3 -1,-3 -1.999985,-4c3.999985,4 10.999985,9 10.999985,12c0,2 -2,3 -3,5c1,1 1,-1 1,2c0,2 12,5 18,9c-2,-1 -5,-2 -8,-2c-2,0 -3,0 -4,3c6,2 15,-3 19,5c-3,-2 -6,-2 -9,-3l-3,3c6,3 18,4 23,9c-6,-2 -13,-7 -21,-5c0,0 5,3 11,8c-2,0 -3,2 -6,2c-5,0 -7,-14 -9,-15c-1,-1 -3,-1 -4,-3c-2,-1 -2,-4 -3,-6l-4,4c-5,1 -4,5 -4,7c-5.999985,-8 -8.999985,-14 -11.999985,-22c0,-1 -2,0 -2,-2c0,-3 2,1 2,-1c0,-3 -6,-10 -6,-12c0,-3 1,-1 2,-2c-1,-1 -2,-1 -3,-1c1,-3 -1,-5 0,-9c-1,0 -1,-1 -2,-2c-1,1 -2,3 -3,4c-3,-6 -6,-13 -9,-21c0,0 0,-4 1,-4c0,0 -1,1 -1,2zm84.000015,-2c0,2 -1,2 -1,5c0,2 -3,3 -3,4c0,-1 -1,-3 -2,-2c2,-2 2,-6 4,-8c0,0 1,1 2,1zm-242.000008,1c0,-1 0,-2 1,-2c0,0 0,1 -1,2zm714.999992,-1c0,2 -3,6 -3,9c-1,1 -2,1 -3,1c2,-4 4,-8 5,-12c0,0 1,-1 1,2zm-340.999969,1c0,-1 0,-3 1,-3c-1,1 -1,2 -1,3zm-232.000031,0l0,-4c0,2 1,3 0,4zm398.000061,-5c1,1 2,2 1,2c0,0 -1,0 -1,-2zm-542.000053,3c0,-1 1,-2 2,-3c0,1 -1,2 -2,3zm256.000023,-3c0,-1 0,-2 1,-2c-1,1 0,2 -1,2zm-16.000015,1c-4,-1 -5,1 -4,3c-1,0 -3,0 -5,-1c2,-2 5,-4 8,-5c0,1 1,2 1,3zm-62.000015,1c0,2 -1,0 -2,1l2,2c2,-2 3,-4 5,-4c-1,1 -2,1 -2,3c0,3 2,2 3,3c-3,1 -3,7 -4,11c-3,-5 -6,-11 -10,-16c1,0 3,-2 4,-4c1,0 4,1 4,4zm217.000031,-2c0,2 2,-1 2,1c0,3 -2,3 -3,4c1,1 1,4 1,4c-1,1 -3,0 -4,0c0,-3 1,-3 1,-5c0,-3 3,-5 5,-7c0,1 -2,0 -2,3zm-165.000015,1c0,-2 2,-3 4,-4l-4,4zm-27,-4c-2,3 -5,6 -6,9c0,0 0,-1 1,-2l-2,-2c0,0 2,1 2,-1c0,-3 -1,-1 -2,-1c1,0 3,-1 4,-3l3,0zm-62.000015,7c-1,0 -1,-2 -3,-4c0,0 0,-3 1,-3c0,3 1,6 2,7zm236.000031,-6c0,-1 0,-2 1,-2c-1,1 0,2 -1,2zm-192.000031,1c-1,-1 -2,-1 -3,-1l0,-3l2,0l1,4zm499,23c0,2 -2,0 -2,3c0,2 2,-2 2,1c0,2 -2,-2 -2,1c0,2 1,2 2,3c-2,-1 -4,-3 -4,-5c0,-3 2,-1 2,-4c0,-2 -1,-1 -2,-2c0,-6 -1,-17 -1,-19c0,-3 1,-3 1,-5c1,0 2,-1 3,-1c0,9 1,25 1,28zm-493.999985,-17c0,3 2,2 3,2c-1,1 -3,3 -3,6c0,2 1,2 4,4l0,-7c1,0 0,1 3,1c2,0 6,-12 11,-12c3,0 1,4 3,4c3,0 5,-2 7,-3l0,3c-1,0 -2,0 -3,1c1,1 1,2 3,2c3,0 5,-4 6,-7c0,0 1,1 2,1l-3,3c3,0 6,0 6,-1c1,2 0,4 0,6c-1,0 -2,-1 -3,-1c-1,1 -1,0 -1,2c0,3 2,2 3,3c-1,1 -3,-1 -3,2c0,2 1,1 2,1l-4,0c0,0 1,-1 1,2c0,2 -3,7 -4,10c0,0 1,1 2,0c1,-2 6,-5 4,-9c1,0 3,0 3,-1c0,1 1,1 1,3c0,3 -2,1 -2,4c0,2 1,3 2,4c-1,0 -2,0 -3,1c0,1 2,1 3,1c-3,3 -4,8 -8,11c1,-1 2,-3 3,-5l-3,-3c-2,5 -4,11 -5,17c-3,-2 -7,-5 -11,-6c0,-1 2,-4 3,-7c-2,2 -4,4 -6,5c-1,-1 -1,-1 -1,-3c0,-3 3,-5 3,-8c0,-2 -2,-1 -2,-3c0,0 -1,-1 2,-1c2,0 1,2 3,1c0,-1 -2,-3 -4,-5l3,0c0,-1 -1,0 -1,-3c0,-1 3,-6 5,-6c-1,-1 -1,-2 -2,-3c-5,6 -11,16 -12,25c-2,-1 -5,-4 -5,-6c0,-7 6,-7 5,-15c-3,3 -5,6 -7,8c-1,0 -3,1 -4,2c0,0 1,0 1,-2c0,-3 -2,-1 -2,-4c0,-2 3,-6 3,-8c0,-3 -2,0 -2,-3c0,-2 4,-9 4,-11c0,-3 -1,-2 -2,-2c2,0 4,1 6,2c-2,3 -4,6 -4,8zm-48.000015,-9c0,-1 0,-2 1,-2c0,1 0,2 -1,2zm534,-1c0,0 0,-1 1,-2c0,1 0,2 -1,2zm-426.999969,-1c1,0 2,-1 3,-1c-1,1 -2,1 -3,1zm-71.000031,1c-6,0 -4,-3 -8,5l0,-7l7,0c0,0 1,1 1,2zm413,-2c0,0 -1,-1 -1,-2c0,0 0,1 1,2zm-369.999985,1c2,0 -1,-2 2,-2c2,0 2,1 3,1l-7,1c0,-1 -1,-2 0,-3c0,1 -1,3 2,3zm-83.000015,1c0,-1 -1,-3 -2,-3c0,0 1,-1 2,-1l0,4zm441.000061,-3c0,-2 1,-1 2,-2c0,1 -2,0 -2,2zm-362.000046,-1c-1,0 -3,1 -4,1c0,-1 1,-1 2,-2c0,0 1,1 2,1zm-51.000015,6c-1,-2 0,-4 -2,-6c1,0 2,-1 3,-1c0,2 0,5 -1,7zm428,-6c1,-1 1,-2 2,-2c-1,1 -1,2 -2,2zm-424,0c0,-1 0,-3 1,-3c0,1 0,2 -1,3zm-126.999992,0c-1,-1 -1,-2 -1,-3c1,1 1,2 1,3zm632.999992,-2c-1,-1 -2,-2 -1,-2c0,0 1,1 1,2zm-449.999985,-2c0,0 3,-1 6,-1c-2,1 -4,1 -6,1zm-9,-1c-1,1 -3,1 -4,1c-1,1 -2,6 -5,6s-4,-2 -6,-1c0,0 0,-2 -1,-2c1,0 0,1 3,1c2,0 3,-3 5,-4l-2,-2l10,1zm450.999985,0c0,-1 1,-2 1,-3c0,1 0,3 -1,3zm-119.999939,8c-3,-6 6,-11 11,-11c-4,3 -8,7 -11,11zm-382.000061,-6l-3,0c-1,-2 -3,-5 -4,-8c3,3 6,5 7,8zm59.000015,-6c0,-1 1,-3 2,-3c0,1 -1,2 -2,3zm-214.000008,-1c0,0 -1,1 -1,2c0,-1 -1,-2 -2,-2c0,0 1,-1 1,-2c0,1 1,2 2,2zm701.999992,-1c-1,-1 -2,-2 -1,-2c0,0 1,1 1,2zm-586,3c-1,-1 -1,-6 0,-6c1,1 0,4 0,6zm255.000031,-3l-4,0l0,-4c1,1 3,4 4,4zm52,-2c-1,0 -3,-1 -5,0c1,-2 3,-2 5,-3l0,3zm-259.000031,3c0,0 -1,1 2,1c2,0 5,-4 7,-8c1,1 -1,4 0,6c1,-1 2,-3 3,-5l8.999985,0c0,1 -1,2 -2,3c1,1 0,1 3,1c2,0 4,-2 5,-4c6,0 7,1 8,1c-4,1 -13,5 -13,10c0,2 2,2 2,3c-2,1 -4,1 -6,0c1,-1 3,-5 5,-9c-4,3 -9.999985,3 -8,8c-4.999985,0 -3.999985,-1 -4.999985,-3c-1,1 -1,2 -2,3c-1,-1 -3,-1 -4,-1c0,-1 2,0 3,0c0,0 1,-1 1,-3c-1,0 -1,-1 -4,-1c-2,0 -1,2 -4,2c-2,0 -3,-2 -4,-2c3,-2 5,-6 7,-9l2,0c0,3 -4,5 -5,7zm55.000015,-8c0,0 1,-1 1,-2c0,1 0,2 -1,2zm-88.000015,-1l0,-1l0,1zm40,1c0,0 -1,-1 -2,-1c1,-1 2,-2 3,-2c-1,1 -1,2 -1,3zm-45,6l2,2l3,0c0,-1 1,-1 1,-4c0,-2 -2,-2 -2,-3c0,0 7,0 8,1l-2,2c1,4 2,10 2,13c0,2 -2,1 -2,3c0,3 2,6 2,9c1,0 2,-2 2,-3c1,2 0,5 1,9c0,0 2,1 3,1c1,-3 0,-6 0,-8c0,-3 -3,-7 -4,-9l0,-6c2,4 6,10 6,12c0,3 -2,0 -2,2c0,3 9,25 9,28c0,2 4,0 4,3c0,2 -2,-2 -2,1c0,2 2,1 3,1c0,0 -1,0 -2,1c0,1 2,1 3,1c1,1 1,0 1,2c0,3 -2,2 -2,4c0,3 1,3 2,4l-1,4c-3,-9 -9,-23 -9,-25c0,-1 -9,-3 -9,-5s1,-3 0,-4c-1,1 -1,2 -2,2c1,-1 2,-3 2,-5c-1,0 0,-1 -3,-1c-2,0 -1,1 -1,2c0,-2 -2,-5 -2,-7c0,-3 2,-1 2,-4c0,-2 -3,-8 -5,-12l-2,-1c0,1 0,3 -1,4c0,-7 -2,-5 -2,-9c0,-2 -3,0 -3,-2c0,-3 2,1 2,-1c0,-3 -2,-7 -3,-8c2,0 2,-2 3,-3c-1,1 1,2 0,9zm311.000031,0c-7,2 -14,4 -21,5l3,0c0,0 -5,0 -6,-1c4,1 9,-1 13,-1c0,0 1,0 1,-2c0,-3 -2,-3 -3,-4c2,-3 7,-3 11,-3c1,0 1,-1 3,-1c3,0 3,2 5,2c3,0 8,-4 11,-5c1,0 5,0 8,-1c-7,3 -16,7 -25,11zm-307.000031,-10c1,0 2,-1 3,-1c-1,1 -2,1 -3,1zm-8,18c-3,-4 -2,-8 -2,-11c0,-2 0,-5 -2,-8c2,3 2,9 4,12l0,7zm457,-10c0,2 -2,0 -2.999939,1c0,1 1.999939,1 2.999939,1c-1,2 -1,4 -1,6c0,3 -1.999939,4 -3.999939,6c0,0 -1,0 -2,-1c1,-1 3,-3 3,-5c0,-3 -2,-1 -2,-3c0,-3 3,-2 3,-4c0,-3 -1,-1 -2,-1c1,-2 5.999939,-5 3.999939,-9c0,-1 1,-2 2,-2c0,8 -1,8 -1,11zm-456,-11l-3,0l3,0zm328.000031,-1c-2,0 -4,1 -5,0l5,0zm-298.000031,5l-1,0c1,-2 1,-4 4,-5c-1,2 -2,4 -3,5zm559,4c-3.280029,-2.460022 -5.210022,-10.289978 -5.25,-10.280029c-0.01001,0 0.070007,0.380005 0.25,1.280029c2,3 4,6 5,9zm-13,0c-1,-2 -2,-5 -4,-6l0,-4c1,2 3,6 4,10zm-107,-3c0,2 1,2 2,3c1,-3 2,-6 4,-9c0,2 -1,4 -1,7c0,2 -1,5 -2,7c0,1 -1,3 -3,4c1,1 3,2 4,1l-3,12c0,-1 0,-3 -1,-4c-1,0 -2,0 -3,1c1,1 2,0 2,3c0,2 -4,5 -8,8c-1,-1 -1,-1 -1,-4c0,-2 3,-5 4,-8s2,-5 2,-9l-3,3c0,-2 2,-6 2,-8c0,-3 -1,-1 -2,-1c1,-1 4,-2 5,-4c-1,-1 -3,0 -5,-1l9,-9c0,2 -2,5 -2,8zm-133.999969,-7c-1,0 -3,0 -4,-1c1,0 3,1 4,1zm-428.000023,7c1,-2 2,-5 2,-8c0,2 -1,6 -2,8zm339.000023,-6c1,-1 1,-3 1,-3c0,1 0,3 -1,3zm-1,3c-1,-1 -2,-1 -2,-4c0,-2 1,-2 2,-2l0,6zm208.000031,-8c0,0 0.999939,-1 0.999939,2c0,-3 -0.999939,0 -0.999939,-2zm-108.000031,1c0,3 1,2 2,2c-1,1 -1,2 -3,2c-3,0 -3,-1 -4,-2c3,0 5,-3 9,-5c-2,3 -4,2 -4,3zm112.999969,-2c1,-1 1,-2 2,-2c0,1 -1,2 -2,2zm-116.999969,-1c-1,0 -3,0 -3,-1c1,1 3,0 3,1zm178.999969,4c-1,-2 0,-4 -1,-6l1,0c1,2 0,4 0,6zm-167.999969,-4c0,0 0,-1 1,-2c0,1 0,2 -1,2zm-44,-1l-2,2c2,-2 5,-3 7,-2c-1,1 -3,1 -5,0zm-5,1c1,-1 2,-2 3,-2c-2,0 -2,2 -3,2zm-409.000023,0c1,0 2,-1 3,-2c0,1 -2,2 -3,2zm396.000023,-1c0,2 -3,4 -3,6c0,3 2,3 2,4c-1,0 -2,2 -2,3l-2,-2c1,-3 3,-6 3,-9c0,-2 -2,-1 -2,-2s2,-1 3,-2c0,0 1,-1 1,2zm-228.000015,-2c0,1 2,0 2,2c0,3 -1,1 -2,2c5,3 12,6 15,6c2,0 -2,-2 1,-2c2,0 0,2 1,3c1,-1 1,-2 3,-2c3,0 2,2 4,2c3,0 8,-3 11,-3c2,0 -2,2 1,2c2,0 2,-2 3,-1c-1,1 -3,1 -4,1c-4,5 -7,8 -7,13c0,2 -3,2 -4,3s-2,1 -5,1c-2,0 -5,-2 -5,-2c2,0 4,-1 7,0c0,-1 1,-2 2,-3c-2,-1 -3,-4 -5,-4c-8,0 5,-5 -26,-1c-2,-1 -3,-1 -3,-4c0,-2 2,-1 3,-2c-1,-1 -2,-3 -3,-4c-2,2 -3,4 -4,5c-5,5 -7,6 -10,14c-4,-2 -15,-8 -15,-12c0,-2 3,-3 5,-3c0,2 -1,8 2,10c3,-3 7,-8 7,-11c0,-2 -1,-2 -2,-3c2,1 5,2 5,4c0,3 -4,8 -6,12l2,2c5,-7 15,-20 15,-22c0,-3 -1,-1 -2,-1l4,0l1,-1c1,0 2,1 3,3c2,-2 4,-2 6,-4zm271.000015,-1l-5,0l5,0zm-35,6c0,3 1,4 2,6c2,-2 3,-4 4,-6c1,0 0,2 2,2c3,0 -1,-2 2,-2c2,0 -2,2 1,2c2,0 14,-5 16,-5c3,0 6,2 8,2c-2,0 -3,-1 -6,-1c-2,0 -11,3 -16,4c-1,1 -3,0 -4,0c-2,5 -6,7 -8,10l-7,0c1,-3 2,-8 2,-10c0,-3 2,-5 4,-8l0,6zm221.999969,-6c-1,0 -2,0 -2,-1l2,1zm-471,1c0,-1 0,-2 2,-1c0,0 -1,1 -2,1zm426,-1c0,1 -2,-1 -3,5c-3,2 -6,5 -10,8c3,-5 5,-9 7,-13c0,2 -1,4 -2,7c3,-2 4,-6 7,-9c0,0 1,-1 1,2zm-132.999969,-2l-1,0l1,0zm-260.000015,3c-3,-1 -6,-1 -9,-1c1,0 2,-2 5,-2c2,0 3,2 4,3zm-77.000015,0c0,-1 0,-3 1,-3c-1,1 -1,2 -1,3zm-5,1c0,0 -1,-1 -2,-1c0,-1 1,-3 2,-3l0,4zm12,-2c-1,-1 0,-2 0,-3c1,1 1,1 0,3zm288.000031,-2l2,-2c0,1 -1,2 -2,2zm203.999969,0c0,0 -1,0 -2,-1c0,0 1,-1 1,-2c1,1 0,2 1,3zm-23,-1c-1,-1 -3,-2 -1,-2c0,0 1,1 1,2zm-7,-1c0,0 1,-1 2,-1c0,0 -1,2 -2,1zm-29.999939,6c1,-2 -1,-4 -2,-8c0,0 5,3 2,8zm-140.000031,-6c4,-2 6,-1 7,-1c-1,0 -3,1 -7,1zm-288.000031,1c-1,-1 -2,-6 1,-2c0,0 -1,1 -1,2zm531,-4c0,0 -1,1 -1,0l1,0zm-63,7c0,-4 1,-6 1,-7c0,1 1,1 -1,7zm-1,-6c-1,0 -3,0 -3,-1c1,0 2,1 3,1zm17,-1c0,0 2,0 2,-1c0,1 -1,2 -2,1zm-490,3c0,0 -2,-5 -1,-5l1,5zm472,-4c1,-1 2,-1 3,-2c0,1 -2,2 -3,2zm-10,4c0,-1 -1,-2 -2,-2c2,-1 3,-3 4,-3c-1,1 -2,3 -2,5zm-178.999969,-4c0,0 -2,-2 1,-2c2,0 3,2 5,2c-3,3 -7,5 -7,8c0,-3 -3,-1 -4,-2c1,-2 4,0 4,-3c0,-2 -2,-2 -2,-3l1,-2l2,2zm190.999969,-5c-1,1 -2,0 -2,-1c0,0 1,1 2,1zm-569.999992,3c0,-1 1,-3 1,-4c0,1 0,3 -1,4zm399.000023,3c-5,-2 -10,-3 -15,-5c1,-1 0,-2 -1,-2c1,0 3,-1 4,-3c0.350006,3.150024 0.459961,4.099976 0.959991,4.419983c0.929962,0.609985 3.23999,-0.919983 11.040009,5.580017zm169.999969,-8c0,-1 0,-3 1,-3c0,1 0,3 -1,3zm-472,-3c-1,1 -4,0 -4,0l4,0zm505,2c0,0 -1,0 -2,-1c0,0 1,-1 1,-2c0,1 0,2 1,3zm52,22l2,0c-1,1 -2,0 -2,3s12,23 12,33c0,3 -2,1 -3,2c0,3 -3,5 -4,8c-1,2 0,6 -1,8c-1,-6 -1,-17 -1,-19c0,-3 -1,-5 -3,-7c0,0 -1,0 -2,1c2,1 1,8 1,9c1,2 2,2 2,5c0,2 -1,5 -1,7c0,3 -3,1 -3,4c0,2 2,1 2,4c0,2 -2,4 -3,6c0,-12 -1,-24 -2,-42c0,0 -3,1 -3,2c-2,-1 -1,-3 -3,-5c-1,1 -1,0 -1,3c0,2 1,3 1,4c1,10 2,21 1,31c0,0 2,-1 2,2c0,2 -2,-1 -2,2c0,2 1,2 2,5c0,0 1,3 0,5l3,3c4,-4 9,-6 13,-9c0,6 -18,15 -22,15c-2,2 -3,4 -5,5c-1,1 -5,2 -7,2c-3,0 -4,-2 -7,-2c-2,0 -9,2 -11,2c-3,0 -6,-2 -9,-1c2,-1 5,-3 8,-4c-1,-1 -3,-2 -5,-1l0,-6c1,0 3,-1 4,-1c0,1 -1,2 -2,3l3,3l3,0c2,0 1,-4 1,-6c1,0 3,-2 6,-4c0,1 -1,0 -1,2c0,3 2,2 3,2c-1,1 -2,1 -3,2c1,2 3,3 5,5c1,-1 0,-1 0,-4c0,-2 3,-4 4,-6c0,0 1,1 2,1c0,1 -3,1 -3,4c0,2 1,4 3,6c1,-2 5,-9 12,-10c-1,2 -4,4 -5,7c3,-1 6,-3 8,-4c1,-2 2,-5 2,-8c0,-2 -5,-7 -5,-9c0,-3 -5,-7 0,-12l-1,4l2,2c1,-1 2,-2 2,-4s-3,-4 -5,-4c0,-7 -1,-15 -2,-22c1,-1 1,-2 0,-26c3,3 6,7 6,10c0,2 -2,3 -3,4c2,1 4,2 6,2c0,-2 2,-3 2,-6c0,-2 -5,-9 -8,-13c-2,-3 -3,-9 -5,-13c4,-2 2,-4 2,-6c9,5 13,20 18,26zm-46,-21c-1,-1 -2,-2 -3,-4l1,-2c0,2 1,5 2,6zm-33,-5l2,2c-2,2 -1,4 -2,6c0,-1 0,-3 -1,-4l2,-2l-2,-2l2,-2c0,0 0,1 -1,2zm-568.999992,0c0,-1 1,-2 1,-3c0,1 0,3 -1,3zm577.999992,-4c0,1 -2,1 -3,2l2,2c0,0 -1,1 -2,1c0,-1 -1,-3 0,-5l3,0zm17,3c-1,1 -2,-1 -3,-1c1,0 3,-2 4,-2c-1,1 -2,2 -1,3zm-3,-3l0,-3c1,1 1,3 0,3zm-547,-2c2,0 2,2 2,3l0,1c0,-1 -1,-3 -2,-4zm498,27c0,0 -1,0 -1,-2c0,-6 16,-24 19,-27c-4,9 -13,19 -18,29zm39,-28c-1,0 -2,-2 -1,-2c0,0 0,1 1,2zm-63.999939,0c0,-1 0,-2 1,-2c0,0 0,1 -1,2zm86.999939,2c0,3 1,4 1,7c-2,-3 -3,-7 -3,-9c0,-3 3,-2 5,-3c0,2 -3,3 -3,5zm-601.999992,0c1,-2 1,-4 3,-5c-1,2 -2,4 -3,5zm166.000008,-3c0,-1 -1,-2 -2,-2c1,-1 3,-1 4,0c-1,0 -2,1 -2,2zm434.999985,-2l-4,0c2,-1 3,-4 7,-2c-1,1 -2,1 -3,2zm-18,18c0,2 -1,5 -2,6c0,-1 -1,-1 -1,-3c0,-3 1,-5 2,-9c0,0 -1,-1 -3,-1c0,1 0,6 -2,9l2,-2c-1,-1 -2,-2 -2,-5c0,-2 2,1 2,-1c0,-3 -3,0 -3,-2c0,-3 1,-3 2,-4l0,3c1,1 2,2 3,2c0,-2 1,-3 1,-6c0,-1 -2,-5 -3,-6c1,-1 2,-2 4,-2l0,21zm-543,-19c0,-1 0,-2 1,-2c0,1 0,2 -1,2zm548,-1c-1,-1 -2,-2 -1,-2c0,0 1,1 1,2zm-275.999969,-1c-1,1 -1,0 -1,2c0,3 1,4 3,5l-1,0c-3,0 -1,3 -1,4c0,0 0,1 -1,2c2,6 -1,6 -1,8s3,1 3,3c0,3 -3,5 -6,8c2,1 3,4 6,5c1,0 0,3 0,6c0,2 -2,0 -3,1c1,1 2,1 3,1c-1,0 -2,0 -3,1c0,0 1,1 2,1c-1,0 -2,0 -3,1c1,1 4,1 3,2c0,1 3,0 3,3c0,2 -2,-2 -2,1c0,2 2,1 3,1c-1,0 -2,0 -3,1c0,0 1,0 1,2c0,3 1,2 2,2c-1,0 -2,0 -3,1c0,0 2,-2 2,1c0,2 -2,-2 -2,1c0,2 2,3 1,3l0,1c1,2 2,1 3,1c-1,1 -3,2 -4,3c0,0 0,1 1,2c1,-1 2,-2 3,-2c-1,1 -3,1 -3,4c0,2 1,2 2,2c-2,2 -13,5 -8,13l2,-2c1,1 3,1 4,2c-1,1 -2,3 -4,4c2,3 1,1 1,3c0,5 6,2 8,2l0,3c-2,3 -8,7 -8,10c0,2 2,-2 2,1c0,2 -4,3 -5,5c-1,0 -2,-1 -3,-1l0,-4c1,0 2,-2 3,-4c0,1 0,2 1,3c1,-1 2,-3 0,-7c0,0 -1,1 -1,2c-1,0 -1,-2 -3,-3c0,-1 2,-2 3,-4c-1,-1 -3,0 -4,0c1,-1 1,-2 2,-3c-1,-1 -2,-2 -5,-2c-2,0 -5,1 -5,4c0,2 1,1 2,1c-1,0 -2,0 -3,1c0,0 1,1 2,1c-4,0 -3,1 -4,5c-1,0 -2,-1 -3,-1c1,0 2,0 3,-1c0,0 -1,-1 -2,-1c2,-1 4,-3 5,-6c0,-1 -1,-2 -2,-3c-1,0 -2,2 -3,3c0,0 -1,0 -2,1l2,2c0,0 -1,0 -2,-1c-1,4 -3,8 -5,12c-1,-1 -2,-2 -2,-4c0,-3 5,-8 6,-10c2,-3 3,-8 5,-11c0,0 0,-1 -1,-2c-6,9 -16,21 -17,30l-3,0c5,-13 9,-18 16,-32c-9,0 -6,3 -9,10c-1,-1 -2,-3 -3,-4c-4,4 -4,9 -12,7c1,-1 5,-2 5,-4c0,-3 -1,-1 -2,-1c1,-1 3,0 5,-1c-1,-1 -2,-2 -3,-2c2,-10 5,-8 5,-9c0,-3 -2,1 -2,-1c0,-3 1,0 2,-1c0,-1 -1,-2 -2,-3c-2,1 -4,1 -4,4c0,2 2,-2 2,1c0,2 -4,2 -4,4c0,3 2,-1 2,2c0,2 -4,1 -4,7l-3,0c-1,-1 -1,-1 -1,-3c0,-3 -2,-2 -3,-2l2,-2c-1,-1 -2,0 -2,-3c0,-2 2,-1 3,-4c-1,0 -1,-1 -2,-2c-1,1 -2,3 -3,5c-2,-1 -2,-4 -4,-6c1,0 3,-2 5,-3c0,0 0,-1 -1,-2c-1,1 -3,2 -5,3c-1,-2 -2,-6 -4,-9l2,-2c-1,-1 -3,-2 -4,-1c0,-1 1,-3 1,-4c-2,-1 -3,-2 -4,-3l0,-7c0,-1 -2,-5 -2,-3c1,-2 4,-4 4,-6c0,-3 -1,-1 -2,-1c2,-1 3,-3 5,-4c-3,-2 -3,-3 -3,-5c-3,1 -6,8 -5,13c-1,0 -1,1 -3,1c-3,0 -1,-1 -2,-2c-1,2 -2,3 -2,5c0,3 1,5 3,7l-2,2c1,3 3,5 6,5c-1,1 -1,3 -2,6c1,1 2,1 3,1c-1,2 1,3 1,5c0,3 -2,0 -2,3c0,2 2,-1 2,1c0,3 -2,4 -2,6c2,-1 3,-2 3,-3c4,3 5,5 5,7c0,3 -1,4 -2,5c1,1 1,2 2,3l2,-2c0,1 1,2 2,2c-2,2 -4,5 -5,7c0,0 0,-1 -1,-2l-3,0l-2,2c0,0 2,-2 2,1c0,2 -5,4 -5,8c-1,3 0,7 -2,10c0,0 -1,1 2,1s4,-10 4,-10c0,-3 9,-4 9,-7c0,-2 -2,1 -2,-1c0,-3 2,-4 3,-6c1,1 0,2 3,2c2,0 1,-1 1,-2c-1,1 1,3 3,5c-2,1 -3,3 -5,5c0,0 -1,1 2,1c2,0 2,-1 2,-2c1,1 0,2 0,3c2,1 5,0 7,1c0,0 -1,0 -2,1c3,4 7,5 7,10c0,2 4,2 7,4l0,4c-7,3 -12,12 -15,19l-4,0c4,-6 5,-9 5,-14c0,-2 1,1 3,0c-1,-1 -2,-1 -2,-3c0,-3 2,0 2,-3c0,-2 -2,1 -2,-1c0,-3 1,0 1,-3c0,-2 3,-2 5,-3l-3,-3l-2,2c0,0 1,-2 -1,-2c-3,0 -2,3 -3,4c0,-2 1,-2 0,-3c-3,0 -6,6 -6,8s-2,2 -3,3l0,4c0,2 -3,0 -3,2c0,3 2,-1 2,2c0,2 -2,7 -5,11c-3,-2 -5,-5 -5,-8c0,-2 5,-8 10,-11c-3,-2 -1,-7 -6,-5c0,0 -1,1 -1,-1c0,-3 2,-3 1,-5c-2,1 -8,15 -8,17c0,3 1,2 2,2c-1,0 -3,0 -4,1c1,1 2,2 3,2c-1,0 -2,0 -3,1c0,0 1,1 2,1c0,0 0,1 -2,1c-3,0 -4,-2 -6,-2c0,-1 1,-2 2,-3c-1,-1 -3,-1 -3,-4c0,-2 1,-3 2,-3c0,0 0,-1 -1,-2c-2,2 -3,5 -6,8c-3,-3 -6,-6 -8,-10l2,-2c-1,-1 -4,-1 -4,-3c0,-3 2,-4 2,-6c0,-3 -5,-5 -6,-7c-2,-2 -2,-6 -4,-8c0,-1 2,-3 4,-4c-1,-2 -3,-3 -5,-5c-0.290009,0 -0.410004,0 -0.440033,-0.049988c-0.059998,-0.119995 0.440033,-0.530029 0.440033,-1.950012c0,-3 -2,-1 -3,0c0,-1 0,-3 1,-4c-2,-2 -3,-2 -5,-3l0,-6c1,0 2,0 1,1c1,1 2,3 3,4c2,-1 4,-2 4,-5c0,-2 -2,-2 -3,-2l0,-3c2,-1 3,-6 6,-6c2,0 1,2 2,2c2,-3 4,-7 4,-9c0,-3 10,-12 15,-18c1,-2 1,-4 3,-5c-1,-1 -2,-1 -3,-1c2,-1 4,-4 4,-7c0,0 1,0 2,1c5,-9 16,-8 22,-9l2,-2c0,0 -2,2 1,2c2,0 3,-2 4,-2c2,0 3,-2 2,-3c1,0 2,-1 3,-1c-2,3 -3,5 -5,7c1,1 0,1 3,1c5,0 11,-16 20,-16c-2,1 -7,7 -6,11c4,-5 10,-11 16,-16c-1,1 2,1 4,1l1,1c-2,2 -3,3 -4,6c1,0 0,1 2,1c3,0 8,-5 8,-7c0,-3 -2,1 -2,-1c0,-3 2,-3 4,-3c3,0 3,1 4,1zm-50,2c-2,1 -5,5 -7,5c-3,0 1,-2 -1,-2c-3,0 -6,4 -8,4c-3,0 -2,-2 -4,-2c1,-1 2,-3 4,-4c1,1 2,1 1,2c0,0 1,1 2,0c4,-3 8,-3 12,-6c-1,1 0,2 1,3zm-94.000015,-1l2,-2c0,1 -1,2 -2,2zm-11,1c0,-1 1,-2 1,-3c0,1 0,2 -1,3zm400.999985,-1c-4,5 -10,10 -14,15c0,-2 1,-2 1,-5c0,-2 2,0 2,-1c0,-7 7,-7 7,-12c1,0 2,2 4,3zm-192.999969,1l2,-2c0,0 0,1 -1,2c3,3 7,8 11,12l-4,4l-5,0c0,-1 2,-2 4,-3c-1,-2 -1,-3 -4,-3c-2,0 -3,2 -4,3c0,0 0,-1 -1,-2c0,-1 2,-2 4,-3c-1,-1 -2,0 -2,-2c0,-3 2,-1 2,-3c0,-3 -3,-3 -4,-5l2,-2c0,1 -1,2 0,4zm-254.000031,11c0,2 -7,7 -11,10l0,2c-2,3 -5,8 -8,12c2,-3 5,-7 5,-10c0,-2 -2,0 -2,-2c0,-4 11,-17 12,-17c1,1 2,1 3,0c3,-3 5,-8 8,-10c-3,9 -7,10 -7,15zm406.000061,-16c0,0 0,1 -1,0l1,0zm-331.000046,1c-1,3 -4,7 -6,8c0,0 -1,1 2,1c2,0 4,-4 5,-6c1,0 -1,2 2.000015,2c2,0 0,-2 2,-2c3,0 -1,2 2,2c2,0 0,-2 2,-2c3,0 -1,2 2,2c2,0 3,-2 5,-1c-6,6 -11,14 -14.000015,21c-2,1 -7,7 -5,10c-1,0 -1,1 -3,1c-3,0 -3,-1 -4,-3c-7,0 -12,-4 -18,-6c-2,1 -5,-1 -7,-1c-3,0 -1,1 -2,1c-3,0 -10,2 -13,2c-2,0 -1,-2 -2,-3l-3,3l-3,0c4,-6 11,-16 11,-18c0,-3 6,-5 10,-7c-1,2 -3,4 -5,5c1,1 2,1 3,2c1,-2 0,-5 3,-5c2,0 -2,2 1,2c2,0 2,-3 3,-4c0,1 1,2 2,1c0,1 -1,5 0,6c2,-2 3,-5 6,-7c0,0 0,1 -1,2c2,3 4,3 7,6c4,-7 6,-13 13,-13c2,0 3,1 5,1zm437.999985,38l0,34c-4,-4 -3,-24 -6,-24c-2,0 0,2 -2,2c-3,0 -1,-2 -3,-1c1,2 2,4 4,4c0,1 -1,1 -2,2c0,2 5,1 3,6c0,-1 0,-3 -3,-4c1,23 1,29 2,38c-2,-8 -4,-23 -4,-25c0,-3 2,-1 2,-4c0,-2 -3,-11 -4,-16c-1,-8 1,-17 -1,-25l-2,-1c0,10 0,20 1,30l2,2l-2,2c0,0 2,-2 2,1c0,2 -3,5 -3,7c0,3 2,3 2,4c1,8 2,23 2,25c0,3 4,6 6,8c-1,0 -1,1 -3,1c-3,0 -3,-4 -5,-4c-3,0 -3,1 -3,2l-3,-3c-1,1 -1,2 -2,3c0,-1 0,-4 -1,-4c1,0 3,1 5,0c-1,-1 -3,-2 -4,-3c0,-2 1,-7 -2,-7c-1,0 0,2 -5,2c0,1 0,3 1,5c-1,0 -1,-1 -2,-2l-2,2c0,1 2,2 4,2c-1,2 -3,4 -3,5l-2,2c0,-2 0,-4 -1,-6c1,-5 2,-8 -2,-10c-0.330017,0.330017 -0.440002,0.440002 -0.440002,0.559998c0,0.219971 0.440002,0.440002 0.440002,2.440002s-2,-1 -2,2c0,2 2,0 2,3c0,2 -2,1 -2,4c0,2 2,1 2,2c-2,1 -4,2 -6,2c0,-2 -1,-5 -1,-7c0,2 1,4 2,6l2,-2c-1,-2 -3,-6 -3,-8c0,-3 1,0 2,-1c-1,-1 -3,-1 -4,-1c2,-1 5,-1 7,-2c-3,-1 -10,0 -10,-3c0,3 2,8 2,10c0,3 0,8 -2,11c-1,-3 0,-6 -1,-9c-2,1 -2,4 -4,6l2,2c-1,0 -2,2 -3,2c-1,1 -2,1 -3,0c-1,1 -2,3 -2,4c-1,0 -2,-1 -4,-3c-1,2 -1,4 -3,5c-6,-2 -7,5 -12,9c0,0 0,1 1,2c2,-2 9,-7 13,-7l-2,2c1,1 0,1 2,1c5,0 2,-3 4,-7c1,0 2,2 4,4c1,-1 2,-3 3,-5c1,1 3,2 4,3c1,-1 1,-3 1,-5c1,2 5,5 8,8l-2,2c1,1 2,1 3,2c0,-3 2,-3 6,-5c0,1 0,2 1,3c-3,0 -5,2 -5,5c-3,2 -11,3 -13,3c-3,0 -2,-2 -3,-3c-1,1 -2,3 -5,3c-2,0 1,-2 -1,-2c-3,0 -5,2 -7,2c-4,1 -9,-1 -14,0c-4,0 -11,3 -14,3c-1.999939,0 -0.999939,-2 -2.999939,-2c-3,0 -9,3 -12,3c-2,0 -3,0 -5,-2c5,-2 10,-4 15,-5c-2,-2 -4,-1 -6,-2c-3,-1 -3,-5 -6,-3c7,-6 16.999939,-13 24.999939,-20c-1,-1 -2,-1 -4,-1c-4.999939,0 -30.999939,24 -31.999939,24c-2,0 1,-2 -1,-2c-3,0 -4,3 -6,5c1,1 2,2 3,2c-3,4 -8,9 -12,11c-11,6 -14,17 -17,17s0,-1 -1,-2c-2,1 -2,7 -4,5c-6,10 -13,19 -20,30l0,-4c0,0 1,0 2,-1c-1,-1 -2,-2 -3.000031,-2c0,-2 3.000031,-5 3.000031,-8c0,-2 -2,2 -2,-1l0,-4c0,0 -1.000031,-1 2,-1c2,0 3,2 4,2c3,-5 7,-11 11,-16c-1,-1 -3,-2 -5,-2l7,-7c-1,-1 -2,-1 -3,0c4,-14 16,-30 24,-44l-4,0c2,-1 9,-10 9,-16c1,0 1,1 2,2c1,-1 1,-3 0,-5c5,-8 15,-20 15,-22c0,-1 11,-7 14,-11c1,0 1,2 1,4c1,0 3,0 5,-1l0,4c-3,3 -3,6 -4,8c-10,11 -21,22 -32,34l1,2l25,-25l6,1c-2,1 -5,4 -7,6c2,1 4,2 5,4c-4,4 -9,8 -13,13l2,2c3,-3 7,-6 7,-8c0,-3 7,-4 10,-8l-2,-2c-1,0 -2,1 -3,1c2,-4 5,-3 8.999939,-8c0,0 0,1 1,2l2,-2c-3.999939,9 3,5 -3.999939,14c0.999939,1 1.999939,1 3.999939,1c0,1 -1,1 -2,2l6,3c1,-1 1,-1 1,-3c0,-3 -1,-3 -2,-3c1,0 6,-3 6,-4c0,-2 -1,-1 -2,-2c0,0 1,0 2,1c2,-6 10,-4 8,-11c1,-4 2,-9 3,-14c0,2 1,5 1,7c0,3 -1,4 -2,6l3,3c2,-5 -2,-15 4,-19c-1,-1 -1,-2 -2,-3c-1,0 -2,2 -3,4c0,0 -1,0 -2,-1c1,-1 2,-2 2,-5c0,-2 -2,0 -2,-3c0,-2 2,-1 2,-3c0,-3 -1,-3 -2,-3c1,0 2,0 3,-1c-1,-1 -2,0 -2,-2c0,-3 1,-3 3,-5l-2,-2c5,0 0,3 7,3c-1,3 0,6 -2,9l2,2c-2,2 -2,3 -2,5c0,3 0,4 1,5l3,0c1,-5 0,-12 0,-15c0,-2 1,-8 1,-12c1,0 2,0 2,-2c0,-3 3,1 4,0c-1,-1 -3,-3 -4,-3c1,0 3,-2 5,-3c0,4 -1,14 1,19c1,-1 3,-1 4,-2l-2,-2l0,-3c3,0 3,6 9,5c-1,-1 -2,0 -2,-3c0,-2 3,-3 3,-6c0,-2 -2,1 -2,-1c0,-3 2,-4 3,-6c1,-3 0,-6 1,-9l1,0c0,1 2,4 2,7c0,2 -2,-2 -2,1c0,2 2,0 2,3c0,2 -2,1 -2,3c0,3 1,6 1,8c0,1 3,3 3,4c0,2 -2,-2 -2,1c0,2 3,3 4,4c2,5 2,12 1,19c0,0 1,1 2,1l-2,2c1,1 2,1 3,0c0,1 -2,2 -3,3l2,2c1,-1 3,-2 3,-3c0,2 0,4 -1,6c2,1 4,2 6,2c4,0 4,-8 4,-9l-5,5c-1,-4 -4,-12 -4,-14c0,-3 2,1 2,-1c0,-3 -2,-2 -3,-3c1,-1 4,-2 4,-4c0,-3 -1,-3 -2,-3c1,0 3,1 4,0c0,-1 -2,-2 -3,-3c-1,-5 -3,-15 -3,-17c0,-3 1,-2 3,-3c-1,-1 -3,-1 -4,-2c1,0 1,0 1,-2c0,-3 4,-2 7,-2l-2,-2c1,0 3,0 4,-1c1,4 4,9 4,13s1,8 1,12l1,-1c2,-2 2,-4 2,-6c0,-3 -3,-15 -5,-22l-3,-3c0,0 -1,1 -1,2c0,-2 1,-4 1,-6c0,-3 -3,-4 -3,-6c0,-3 0,-1 1,-2c4,11 8,28 18,40zm-365.999969,-38c-1,0 -3,-1 -4,-1c1,0 2,-1 3,-1c0,0 1,1 1,2zm342.999969,0c0,0 0,-3 1,-3c-1,1 1,2 -1,3zm-356.999969,1c0,1 0,2 1,3c0,0 -1,0 -2,-1c-1,1 -1,2 -1,3c-1,-1 -2,-3 -2,-5c0,-3 -2,1 -2,-1c0,-3 1,-2 1,-3c1,2 3,3 5,4zm-95.000015,-3c-2,1 -5,4 -8,6c1,-2 4,-4 6,-7c0,0 1,1 2,1zm284.000015,0c0,-1 0,-2 1,-2c0,0 0,1 -1,2zm-396.000031,-1c0,3 2,2 2,4c0,-1 -2,-1 -2,-4zm3,36c0,1 -10,14 -12,22c-2,6 -7,16 -7,18c0,2.359985 1.240005,1.630005 1.279999,1.690002c0.009995,0.02002 -0.070007,0.099976 -0.279999,0.309998c0,1 -2,2 -2,5c0,2 2,5 2,7c0,4 -3,3 -3,5c0,3 15,43 21,56l-2,2c1,1 1,1 3,1c3,0 7,5 7,8c0,2 -2,1 -2,2c1,1 4,1 4,1c0,1 0,2 -1,3c1,1 1,2 2,3c1,-1 1,-2 2,-2c0,0 -1,-1 -1,2c0,2 3,4 3,6c1,1 3,2 3,5c0.330002,0.330017 0.440002,0.440002 0.559998,0.440002c0.220001,0 0.440002,-0.440002 2.440002,-0.440002s3,4 5,5c13,10 27,19 42,29c5,4 12,6 17,8l0,2c0,2 11.000015,4 17.000015,6l21,0c2,0 5,-4 6,-7c-1,0 -2,-1 -4,-1c-3,0 -4,2 -7,2c-2,0 -9,-2 -14,-5c0,0 -1,-2 -2,-3c-13.000015,-1 -19.000015,-10 -25.000015,-10c-2,0 -1,1 -1,2c-4,-6 -11,-10 -15,-12c-7,-4 -17,-15 -20,-15c-2,0 -1,1 -1,2c-4,-8 -10,-13 -16,-20c-3,-3 -3,-8 -6,-11c-3,-5 -8,-10 -11,-16c-2,-3 -3,-9 -5,-12c-2,-5 -5,-9 -5,-12c0,-2 2,0 2,-2c0,-3 -6,-17 -6,-19c0,-3 16,-31 13,-43c4,6 19,23 25,31c8,10 13,25 19,37c-3,-2 -5,-6 -8,-9l-2,2c4,5 8,11 11,15c1,0 0,3 1,5c14,23 31,70 60.000015,70c2,0 5,-2 8,-2c2,0 6,3 9,3c2,0 21.000015,-5 32.000015,-7c1,0 5,-3 8,-3c3,-1 5,1 9,0c5,-1 11,-1 16,-2c10,-2 20,-4 30,-7c8,-2 21,-11 24,-11c2,0 6,3 9,4l-8,8c0,0 -1,1 2,1c2,0 7,-3 11,-4c8,-2 10,-4 16,-5c4,-1 11,0 16,0c2,0 4,-3 7,-3c2,0 3,3 6,5l3,0c1,-1 1,-3 0,-5c1,1 3,0 4,0c14,-5 27,-12 40,-18c1,0 2,0 3,1c-3,6 -6,13 -10,18c-3,5 -10,11 -10,14c0,2 2,-2 2,1c0,2 -4,4 -6,6c1,1 3,3 5,3c-2,1 -3,4 -4,6c1,1 1,3 4,3c2,0 1,-1 2,-2c2,-1 5,-2 5,-4c0,-3 12,-15 15,-21c0,-2 1,-3 1,-5c0,-1 3,-8 4,-12c0,-3 1,-5 1,-8c0,-2 1,-4 1,-6c0,-1 1,-3 2,-3c8,-4 15,-9 16,-9c2,0 5,3 7,4c1,-1 1,0 1,-3c0,-2 -1,-2 -2,-3c2,-1 4,-1 3,4c1,0 0,-1 3,-1c2,0 0,1 1,2c1,-1 1,-1 1,-4c0,-2 -1,-3 -3,-4c0,-1 0,-2 -2,-1c5,-7 9,-3 12.000031,-11c1,0 2,-1 3,0c-2,0 -2,1 -3,2c0,1 2,1 3,1c-4,3 -16.000031,32 -16.000031,38c0,3 4,1 4,4c0,2 -1,2 -1,4c0,3 -2,-1 -2,1c0,3 2,-1 2,2c0,2 -3,8 -5,12c-2,2 -3,4 -5,6c-3,2 -8,2 -11,6c-3,2 -36,35 -36,39c0,2 -13,13 -21,18c-2,2 -6,4 -9,5c2,-2 3,-6 3,-8c0,-3 -2,-1 -2,-4c0,-2 2,0 2,-2c0,-3 -3,-4 -5,-5c0,0 0,-1 1,-2c-1,-1 -2,-1 -3,-2c-2,1 -3,5 -2,7c-9,-5 -15,-9 -23,-8c1,0 2,0 3,-1c-3,-4 -10,-2 -13,-2c-7,-1 -19,-3 -22,-3c-2,0 -5,1 -7,2l2,2c-7,-1 -19,-6 -21,-6c-8,0 -22,5 -26,13c1,-1 -1,-2 0,-4c-1,-1 -2,-1 -3,-2c-2,3 -3,7 -6,10c1,3 0,6 0,9c0,2 -2,-2 -2,1c0,2 2,1 2,2c-1,-1 -3,-1 -4,0c1,2 3,2 4,4c-1,3 -5,5 -5,8c0,2 2,6 5,9c-1,1 -3,0 -7,1c1,1 2,1 3,2c-5,1 -13,2 -16,2c-2,0 -35.000015,-5 -52.000015,-7c0,0 0,-1 1,-2c-5,-7 -18,-3 -24,-5c-4.000015,0 -7.000015,0 -11.000015,-1l0,-5c0,-3 2,-2 2,-5c0,-2 -4,-10 -7,-13c-4,-3 -12,-4 -17,-10l2,-2c-5,-2 -11,-3 -15,-5c-7,-2 -12,-5 -16,-7c-2,-1 -5,0 -7,0c-3,0 -2,2 -3,1c-11,-9 -19,-12 -28,-12c-3,0 -6,2 -9,3l-41.999992,-65c0,0 2,1 2,-1c0,-3 -4,-1 -4,-3c0,-3 2,1 2,-1c0,-3 -12,-22 -12,-24c0,-3 2,1 2,-1c0,-3 -6,-12 -6,-14c0,-3 2,-2 3,-4c-7,-5 -7,-7 -7,-11c0,-3 -6,-13 -6,-15c0,-3 2,1 2,-1c0,-3 -2,1 -2,-1c0,-3 1,0 2,-1l-2,-2c0,-2 4,-4 7,-5c-3,0 0,-1 -5,-1c-1,-7 10,-8 17,-13c1,0 2,0 3,1c-1,7 -2,19 -2,21c0,3 0,6 2,8l-2,2c2,3 5,8 5,11c0,2 -2,-1 -2,1c0,3 2,4 3,4c3,5 7,13 11,21c-2,0 -5,-2 -7,-4c0,0 -1,-1 -1,2c0,2 6,5 8,6c3,6 11,19 19.999992,26l5,0c0,0 1,0 1,-2c0,-3 -7,-11 -12,-17l-2,2c-0.999992,-3 -2.999992,-7 -4.999992,-10c1,0 3,2 4.999992,3l3,0l2,-2c-5.999992,-4 -6.999992,-7 -12.999992,-10c1,-1 2,-1 2,-3c0,-3 -4,-2 -4,-4c0,-3 2,1 2,-1c0,-3 -2,-2 -3,-3c-1,-5 -2,-11 -4,-16c0,0 1,0 2,-1c1,3 4,7 6,11l2,-2c-5,-10 -10,-14 -10,-23c0,-3 1,-9 1,-11c0,-3 1,-1 1,-2c-1,-5 0,-6 4,-8c0,-1 -2,-2 -4,-3c1,-2 4,-5 4,-8c0,-2 -2,1 -2,-2c0,-7 10.999992,-8 10,-14c-2,1 -3,2 -5,4c2,-9 8.999992,-16 8.999992,-22c1,0 0,1 3,1c2,0 2,-2 4,-3s7,2 11,-2c3,2 10,20 10,28c0,2 5,6 5,9zm546,-34c0,-1 -1,-3 0,-4c-1,1 0,3 0,4zm-223.999969,-1c0,0 0,-1 -1,-2c1,-1 3,-1 3,0l-2,2zm-220.000015,-3l-1,0l1,0zm-52.000015,30c1,1 3,0 4,0c0,0 0,1 -3,1c-2,0 -1,1 -2,2c0,-1 -1,-3 -2,-3c5,-6 9,-14 14,-19c2,-3 8,-6 13,-11c-9,11 -16,20 -24,30zm357.000061,-27c0,0 -1,0 -2,1c1,1 2,1 3,1c0,6 -1,13 -2,20c-1,0 -1,-1 -2.000031,-2c-1,1 -3,2 -4,3c-1,2 0,4 -1,5s-4,8 -4,4c0,-2 1,-1 2,-2l-1,-4c-2,1 -5,5 -4,8l-9,0c3,-3 16,-12 16,-17c0,-3 -4,-12 -4,-15c0,-2 3,-4 4,-7c2,1 5,4 8.000031,5zm-188.000031,0c1,-1 1,-3 3,-5c-1,2 -2,4 -3,5zm-119.000015,-5c0,1 -1,0 -1,2c0,3 2,-1 2,2s-5,5 -5,6c0,2 1,1 2,1c-3,1 -6,3 -6,6c0,2 2,-1 2,1c0,3 -6,7 -8,12c-3,6 -4,14 -8,21c-2,-1 -4,-4 -6,-5c2,-3 5,-7 5,-9c0,-3 3,-1 4,-2c0,0 -1,-1 -2,-1c0,-2 3,-4 3,-6c0,-3 1,0 2,-1c-1,-1 -2,-1 -3,-2c-2,3 -7,5 -7,8c0,2 1,1 2,1c-6,-2 -5,1 -5,5c0,2 -1,2 -1,5c0,0 -5,5 -5,6c0,-3 -2,-1 -3,-2c-2,2 -3,4 -5,5c3,-4 6,-10 8,-15l-2,-2c-3,5 -6,11 -9,16c0,-1 -1,0 -1,-3c0,-4 12,-16 16,-19c-1,1 -2,3 -1,5c11,-10 18,-26 30,-32c-1,-1 -2,-3 -1,-3l3,0zm419.999985,3c0,-1 0,-2 -1,-3c1,0 2,-1 3,-1c-1,1 -2,3 -2,4zm-10,1c2,0 4,-2 4,-4c-2,4 -10,16 -13,20c1,-1 3,-3 3,-5c0,-3 -2,-1 -2,-3c0,-3 2,-2 3,-3c-2,-1 -2,-2 -2,-5c0,-2 0,-3 1,-5c2,2 3,5 6,5zm-118.999969,-1c0,0 0,-1 -1,-2l2,-2c0,1 0,3 -1,4zm-127,-4c-3,2 -7,4 -11,6c3,-2 5,-4 8,-7c0,2 2,1 3,1zm-35,0c-1,1 -2,2 -2,3c0,-1 -1,-2 -2,-2c0,0 1,-1 1,-2c1,0 2,1 3,1zm-79,1c1,-1 1,-2 2,-2s-1,2 -2,2zm-173.000031,-1c-1,1 -1,2 -1,3c-1,0 -1,-1 -3,-2c1,0 4,-1 7,0c-1,0 -2,0 -3,-1zm405.000031,-2c2,3 5,8 7,11c2,4 4,9 4,12c0,7 -15,15 -21,15l-5,0c6,-3 8,0 12,-11c2,-5 3,-14 3,-17c0,-2 -2,-7 -3,-10l3,0zm190.999969,6c0,2 -2,-2 -2,1c0,2 14,12 14,15c0,2 -1,3 -1,5c-3,-4 2,-1 -7,-12c-1,1 -1,0 -1,2c0,3 5,13 7,19c-9,-3 -8,-23 -15,-29c0,-1 2,-1 3,-2c-1.940002,-4.52002 -2.619995,-4.039978 -2.869995,-4.200012c-0.130005,-0.089966 -0.130005,-0.380005 -0.130005,-1.799988c1,2 5,4 5,7zm-30,4c-4,-3 -4,-4 -4,-7s0,-4 1,-4c0,3 1,7 3,11zm-561,-9c1,-1 4,-1 4,-2c-1,0 -1,3 -4,2zm497.000061,-2c0,1 -1,3 -2,4l0,-5c0,0 1,1 2,1zm-274.000031,3l-3,3l-3,0l0,-7c1,1 4,3 6,4zm57,-2c0,-1 1,-3 2,-3c-1,1 -1,2 -2,3zm-136.000015,-1c1,-1 3,-2 4,-1c0,0 -1,1 -4,1zm75.000015,-2c0,-1 0,-2 1,-2c0,0 -1,1 -1,2zm333.999969,4c0,3 -1,12 -2,18c0,0 0,1 -1,0c0,0 2,1 2,-1c0,-3 -1,-1 -2,-2c1,-1 1,-3 0,-5c0,0 0,-1 -1,-2c-1,0 -1,2 -1,12c-1,0 -2,0 -3,-1c0,0 1,0 2,-1c-2,-3 -4,-7 -4,-9c0,-3 2,1 2,-1c0,-3 -1,-3 -1,-4c2,0 3,2 4,4c2,-1 3,-4 3,-6s-3,-5 -3,-5c0,-3 2,-3 1,-4c0,0 4,5 4,7zm-208.999969,-7c-2,2 -4,4 -5,6l1,-6l4,0zm-179.000015,9c0,-1 -1,-2 -2,-2c1,-1 2,-3 2,-5c1,0 0,1 1,2c1.000015,0 3.000015,-2 4.000015,-4c-1,3 -3,7 -5.000015,9zm-38,-8c-2,1 -4,3 -5,3l-3,0c2,0 3,-2 5,-4c1,0 2,1 3,1zm229.000015,7c0,2 1,2 1,2c1,6 1,12 2,18c0,0 3,1 3,4c0,2 4,4 6,5c-3,-1 -7,-2 -7,-4c0,-3 -5,-7 -8,-9c0,0 1,1 1,-1c0,-1 -3,-4 -7,-3c0,-2 1,-2 0,-3c1,0 2,2 4,2c0,-3 0,-11 4,-13l-2,-2c1,-2 3,-3 5,-5c0,2 -2,6 -2,9zm-73,-7c0,0 1,-1 1,-2c0,1 0,2 -1,2zm126,0c-1,0 -2,-2 -3,-3c1,0 3,2 3,3zm-130,-2c-1,2 -4,3 -7,5c0,1 1,2 2,2c-1,0 -3,-1 -5,-4c1,-1 6,0 7,-4c1,0 2,1 3,1zm-39,2c1,0 3,0 4,-1c-2,6 -13,8 -17,12c-1,-1 -2,-2 -2,-4c1,0 0,1 3,1c2,0 -1,-2 1,-2c3,0 0,1 1,2c7,-3 5,-7 10,-11l0,3zm98,-3c0,-1 2,-2 3,-1c-1,0 -2,1 -3,1zm-76,0c0,-1 1,-2 1,-3c0,1 0,2 -1,3zm319.999969,10l0,1c0,3 1,2 2,2c-0.710022,0.710022 -0.919983,1.429993 -0.97998,1.409973c-0.02002,0 -0.02002,-0.119995 -0.02002,-0.409973c-3,-6 -5,-12 -8,-18c4,3 5,9 7,14zm-313.999969,-10c-1,1 -3,0 -4,0c1,-2 4,-3 7,-3c-1,0 -3,1 -3,3zm-137.000015,1c-2,-2 -4,-2 -6,-3c2,0 4,-1 6,-2c0,2 -1,3 0,5zm108.000015,-4c0,2 -9,6 -12,10c-1,-1 -3,-2 -4,-3c-1,1 -1,2 -2,2c1,-2 2,-7 5,-7c2,0 -2,2 1,2c2,0 4,-4 6,-5c0,1 0,2 1,3c1,-1 3,-2 4,-4c0,0 1,-1 1,2zm10,-1c1,0 3,-1 4,-2c0,1 -2,2 -4,2zm113,2c-1,-1 -2,-1 -3,-1c1,-1 4,-5 8,-4c-2,1 -4,3 -5,5zm-80,-4l2,-2c0,1 -1,2 -2,2zm-4,-2l-3,0l3,0zm-38,4l4,-4c0,1 -2,3 -4,4zm-5,-2c1,-1 1,-2 2,-2c-1,1 -1,2 -2,2zm-114.000015,-1c1,-1 2,-1 3,0c-1,1 -2,1 -3,0zm-3,-1c0,0 -1,1 -1,0l1,0zm227.000015,0c0,-1 0,-2 1,-2c0,0 0,1 -1,2zm-112,1c0,-1 1,-3 2,-3c-1,1 -1,2 -2,3zm-41,0c1,-1 2,-3 3,-1c-1,1 -2,1 -3,1zm226,12l0,3l-6,-3l2,-2c-1,-3 -1,-6 -3,-4c1,-2 0,-3 0,-5c0,-3 -2,-1 -3,-2c1,-1 1,-2 2,-3c2,5 4,11 8,16zm-263.000015,-13c0,-1 1,-2 2,-3c0,1 -1,2 -2,3zm205.000015,-2c0,0 -1,-1 -2,-1c1,0 3,-1 4,-1c0,1 -1,1 -2,2zm-20,0c-1,2 -2,4 -3,5l1,-7c0,1 1,2 2,2zm-79,7c0,-1 0,-2 -1,-3c-1,1 -3,-1 -3,1c0,-2 2,-2 3,-3c-1,-1 -1,-2 -3,-2c-3,0 -1,1 -1,2c-1,-1 0,-2 0,-3l4,0c1,1 3,2 3,4c4,0 6,-4 11,-5c-3,2 -8,6 -13,9zm129,-9l0,2c-1,-1 -3,-2 -5,-3c2,1 4,1 5,1zm-289.000031,0c1,0 3,-1 4,0c-1,0 -3,1 -4,0zm153.000031,-1l-3,0c1,-1 4,-2 6,-3l-3,3zm-118.000015,8c0,-1 -1,-1 1,-3l-2,-2c3,-2 6,-4 8,-5c-3,3 -5,6 -7,10zm222.000015,-10c-1,1 0,3 -2,3c-3,0 0,-1 -1,-2c0,0 -1,-1 -1,2c0,2 1,2 2,2c-7,4 -6,5 -12,10c0,0 0,-1 -1,-2c2,-2 5,-3 6,-4c2,-3 4,-7 7,-11l2,2zm-111,1c-1,0 -2,2 -4,2c-3,0 1,-2 -1,-2c-3,0 -2,2 -3,2c1,-1 3,-2 4,-3c-1,-1 -2,-1 -2,-2l6,3zm151,-4c0,0 -1,1 -1,0l1,0zm-159,3c-2,1 -3,1 -5,3c0,0 0,-1 -1,-2c2,-1 3,-3 5,-4l1,3zm32,-3c-1,1 -2,2 -4,3c0,-1 1,-3 1,-4c1,1 2,0 3,1zm-143.000015,0c-1,1 -3,1 -5,2c-1,0 1,-1 2,-3c1,1 -1,1 3,1zm390.999985,2l0,-4c1,1 1,3 0,4zm-33.999939,0c0,-1 -3,-5 0,-4l0,4zm-142.000031,-2c1,-1 1,-2 2,-2c-1,1 -1,2 -2,2zm-213.000015,-1c1,0 3,0 5,-1c-1,1 -3,1 -5,1zm6,1c0,-1 1,-3 2,-3c0,1 -1,2 -2,3zm120.000015,-3c0,0 0,2 1,2c-1,0 -3,1 -5,1l0,-4c1,0 3,2 4,1zm-49,1l-4,1c1,-1 2,-2 2,-3c0,1 1,2 2,2zm-23,0c1,-1 1,-2 2,-2c0,1 -1,2 -2,2zm90,3c0,-1 -1,-3 0,-6c6,2 1,5 8,6c-2,1 -5,0 -8,0zm-111.000015,-4c0,-1 0,-2 1,-2c0,0 -1,1 -1,2zm371.999985,0c0,2 1,3 1,6c0,2 5,7 5,10c0,2 -1,4 -2,5c-3,-3 -5,-7 -5,-9c0,-3 2,1 2,-1c0,-3 -1,-4 -1,-7c0,-2 -1,-1 -2,-1l2,-2c0,0 -2,1 -2,-1c0,-3 2,-3 4,-3c-1,0 -2,0 -2,3zm-138.999969,1c0,-1 -5,-5 0,-4c1,1 -1,2 0,4zm-154,-3c-1,0 -3,0 -5,1c0,0 0,-2 1,-2c1,1 3,1 4,1zm-228.000031,2c-1,-1 0,-2 0,-3l0,3zm338.000031,-2c1,-1 1,-2 2,-2c-1,1 -1,2 -2,2zm-213.000015,1c0,-1 1,-2 1,-3c0,1 0,2 -1,3zm429.999985,6c-5,0 -4,-3 -8,-6l0,-4c1,3 5,6 8,10zm-85.999939,-7c0,0 1,1 0,1l1,-4c0,1 0,2 -1,3zm-106.000031,4c-1,0 -2,1 -2,2c-1,-1 -3,-2 -5,-2c-3,0 -1,2 -4,2l-4,0c3,-2 6,-3 8,-5c1,0 3,0 5,1c1,-1 1,-3 3,-5c-1,0 -2,4 -1,7zm-39,1l0,3l-2,2c-1,-1 -2,-2 -2,-4c0,-4 7,-8 9,-8c-3,2 -5,4 -5,7zm-192.000015,-3c-2,0 -3,-1 -4,-1c4,0 7,-2 11,-4c-5,2 -4,5 -7,5zm224.000015,-4c-4,1 -3,4 -8,3c1,-1 3,-4 6,-5l2,2zm21,-2c1,0 2,1 2,2l-2,-2zm-49,-1c0,0 -1,1 -1,0l1,0zm140.000031,1c1,-1 0,-2 1,-2c0,0 0,2 -1,2zm-223.000031,0c-1,0 -2,-1 -3,-1c0,0 2,0 2,-1c0,0 0,1 1,2zm-128.000015,2c0,-2 2,-3 4,-4c-1,1 -3,2 -4,4zm238.000015,-3c0,0 1,-1 1,-2c0,1 0,2 -1,2zm-96,1c0,-1 1,-2 1,-3c0,1 0,2 -1,3zm259.999969,2c0,-2 1,-5 3,-6l-3,6zm-29.999939,-5c0,0 -1,0 -2,1c0,0 0,-2 -1,-2c1,0 2,1 3,1zm-335.000031,1c-11.000015,6 -10.000015,13 -15.000015,20c0,-1 0,-2 -1,-3c-1,1 -4,0 -4,3c0,2 1,1 2,1c-1,1 -2,1 -3,0c-1,2 -3,5 -3,8c0,2 2,-2 2,1c0,2 -4,5 -6,8c0,-1 0,-2 -1,-3c-1,1 -1,2 -1,3c-3,-1 -6,-1 -9,-1c3,-3 10,-12 15,-11c-1,-1 -2,-3 -3,-2c2,-4 11,-12 11,-16l2,2c3,-4 9,-8 12,-12l2.000015,2zm372.999969,-1c0,0 -1,-1 -1,-2c0,0 0,1 1,2zm-43.999939,2c0,-3 0,-4 1,-4l-1,4zm-113.000031,1c-3,0 -5,-2 -8,-2c0,-1 0,-3 1,-3s3,0 7,5zm-249.000015,-4c0,0 1,-1 2,-1c0,0 -1,1 -2,1zm50.000015,-1c0,0 -1,0 -2,1c0,0 2,0 5,-1c0,0 0,1 -1,1s-4,1 -3,6c-3,2 -7,2 -10,2c1,2 2,3 4,4c-2,1 -4,3 -6,5c0,1 1,3 2,4c1,-2 3,-3 3,-5c0,-3 4,-2 5,-4c1,1 -1,3 -2,5l2,2c5,-5 11,-13 15,-18c0,0 3,3 7,3c0,0 -1,-1 -2,-1c0,0 1,0 2,-1c0,1 -2,1 -2,4c0,2 2,-2 2,1c0,2 -7,6 -10,10l1,2l2,-2c0,1 1,2 2,2c-2,1 -4,0 -6,0c-1,1 -2,3 -4,4c1,2 4,4 8,5l-2,-2c0,0 1,0 2,1c2,-5 6,-8 8,-13l2,2c-1,0 -2,0 -3,1c0,1 2,1 3,1c-2,1 -5,4 -4,9c2,-2 4,-5 5,-6c0,2 -3,2 -3,5c0,2 2,1 2,2c-5,1 -6,8 -6,10l2,-2c-1,3 -2,7 -3,10c0,0 0,-1 -1,-2c-2,4 -6,7 -7,11c0.359955,0.359985 0.459961,0.460022 0.529999,0.440002c0.140015,-0.030029 0.190002,-0.440002 1.470001,-0.440002c3,0 0,2 1,3c2,-3 4,-6 4,-9c0,0 -2,2 1,2c1,0 4,1 4,-1c0,3 -1,1 -2,2l2,2c-1,0 -1,0 -1,3c0,2 -8,11 -13,15c1,1 3,2 4,1c0,1 1,0 1,2c0,3 -3,5 -5,7c-1,0 -1,-2 -2,-3c-1,2 -1,4 -2,6c1,1 2,0 3,0l0,4c-6,6 -12,8 -12,10s2,-2 2,1c0,2 -2,2 -3,3c1,2 0,2 0,5c0,2 -4,6 -7,8c-8.000015,-1 -9.000015,3 -11.000015,3c-3,0 -2,-1 -3,-1c3,-1 6,-4 13.000015,-3c0,-1 -1,-2 -2.000015,-3c1.000015,0 3.000015,1 4.000015,0l-2,-2c3,-2 5,-6 7,-9c0,0 0,-1 -1,-2c-2,2 -6,2 -6,5c0,2 2,-2 2,1c0,2 -5.000015,5 -7.000015,7c0,1 1,1 -2,1c-2,0 -8,-1 -12,-1c1,-1 3,-3 3,-5c0,-3 -1,-1 -2,-1c0,0 -1,-1 2,-1c2,0 0,1 1,2c1,-1 2,-2 2,-4c0,-3 3,0 3,-2c0,-3 -1,-1 -2,-1l3,0c-1,-2 0,-2 0,-5c0,-2 3,-3 4,-4c0,-3 2,-8 4.000015,-11c0,-1 1,-3 1,-4c3,-3 9,-8 9,-10c0,-3 3,-3 4,-5c2,-3 4,-10 4,-12c0,-3 4,-5 7,-7c-1,-1 0,-1 -3,-1c-2,0 -2,3 -5,3c-2,0 -3,-2 -4,-2c1,0 1,-3 1,-4l4,1c0,0 -1,0 -1,-2c0,-3 2,-3 3,-5c0,0 0,-1 -1,-3c-3,2 -6,5 -7,5c-2,-1 -5,-1 -7,-2c1,-1 3,-3 4,-5l-2,-2c-2,1 -4,6 -7,6c-2.000015,0 1,-2 -2.000015,-2l-2,0c-1,1 -1,2 0,3c-1,0 -3,0 -4,-1c-1,2 -3,5 -3,7c0,0 0,-1 -1,-2c-1,0 -1,-1 -1,2c0,2 -5,2 -7,2c1,0 3,-2 5,-3c-1,-1 -3,-2 -5,-3c13,-11 24.000015,-23 36.000015,-36c0,0 1,1 2,1zm187,-2c-1,2 -3,1 -5,3c0,-1 1,-2 1,-3l4,0zm-102,3c0,0 1,2 -1,2c-3,0 0,-1 -1,-2c-1,1 -2,2 -3,2c1,-1 0,-2 -1,-2c1,0 3,-2 2,-3c2,1 2,3 4,3zm270.999969,-3c0,0 -1,0 -2,1c0,0 0,-2 -1,-2c1,0 2,1 3,1zm-9,6l-2,-2c1,-2 3,-4 4,-5c-1,2 -2,5 -2,7zm-282.999969,-5c0,-1 1,-1 2,-2c0,1 -1,1 -2,2zm-6,1c0,-1 1,-2 2,-3c0,1 -1,2 -2,3zm-41,0c1,-1 1,-3 2,-2c-1,1 -1,2 -2,2zm-32,1c0,0 -2,-1 -3,-2c2,0 4,-1 6,-2c-1,2 -3,2 -3,4zm328.000031,-3c-1,0 -1,-1 -2,-2c1,0 2,1 2,2zm-153.000031,1c0,-1 0,-3 1,-3c0,1 -1,2 -1,3zm-87,1c-1,-1 -3,-1 -5,-2c1,-1 3,-2 4,-2c0,1 1,3 1,4zm-30,-3c-2,0 -2,1 -2,2c-1,-1 0,-2 0,-3c0,0 1,1 2,1zm-43,1l2,-2c0,1 -1,2 -2,2zm-26.000015,1c1,0 2,-2 3,-3c0,1 2,1 3,1c-2,1 -5,3 -5,3c-1,-1 -3,0 -4,0c1,-1 2,-3 3,-4c-1,1 -1,2 0,3zm194.000015,-1c-1,0 -2,0 -3,1l4,-4c-1,1 -1,2 -1,3zm-115,-3c-9,10 -5,4 -7,6l-2,2c1,1 3,1 4,1c-3,1 -7,3 -10,4c0,-1 4,-4 2,-5c3,-4 7,-5 9,-8l4,0zm303.999969,1c1,-1 1,-2 2,-2c-1,1 -1,2 -2,2zm-263.999969,4c-1,0 0,1 -3,1c-2,0 -3,-5 -4,-8c3,1 6,4 7,7zm-11,-6c1,0 2,-2 3,-2c-1,1 -2,2 -3,2zm269.999969,1c0,-1 1,-2 1,-3c0,0 1,2 2,2c-1,1 -2,1 -3,1zm-39.999939,-1c0,-1 0,-2 -1,-3c1,0 2,-1 3,-1c-1,1 -1,3 -2,4zm-339.000046,-3c-1,0 -3,1 -5,2l3,-3c0,0 1,1 2,1zm240.000015,6l-2,2l0,3c2,0 4,1 6,1c0,0 -1,0 -2,1c3,5 3,6 3,7c0,2 3,3 5,4l-2,2c1,1 2,0 2,3c0,2 -2,3 -3,3c1,-1 2,-2 2,-3c-2,0 -5,-1 -7,-1c0,0 -1,0 -1,-2c0,-3 2,-2 3,-3c-1,-1 -4,-1 -4,-3c0,-3 2,1 2,-1c0,-3 -3,-3 -3,-5c0,-3 -2,-1 -3,-1c0,0 1,0 2,-1c-5,-4 -6,-2 -10,-8c11,-9 4,-6 4,-7c7,1 4,5 8,9zm-202,-5c2,-1 4,-3 6,-3c-2,1 -4,3 -6,4s-4,2 -4,4c-1,0 -3,-1 -4,-2c2,-1 4,-4 6,-7c0,1 1,3 2,4zm76,-4c-1,0 -2,0 -3,1c0,0 0,-2 -1,-2c1,0 3,1 4,1zm114,2c0,2 -1,0 -2,1c0,0 1,1 2,1c-1,1 -2,0 -3,0c-1,1 -1,4 0,4c-7,0 -5,-3 -9,-3c-2,0 -7,3 -10,6c2,-2 3,-4 2,-6c2,-1 4,-3 6,-5c1,0 0,1 1,2c2,-1 3,-4 5,-4c3,0 8,1 8,4zm-77,-2c-1,0 -3,1 -3,3c0,-1 -1,-2 -1,-5c1,0 3,1 4,2zm-166.000015,8c-1,-4 6,-9 8,-10c-3,3 -5,6 -8,10zm222.000015,-8c0,-1 1,-2 3,-3c0,1 -2,2 -3,3zm-105,-2c-1,0 -2,0 -3,1c1,1 4,1 5,3c-2,0 -5,1 -8,0c0,-1 2,-1 3,-2c-1,-1 -3,-1 -4,-1c0,-1 1,-1 2,-2c0,0 -1,-1 -2,-1c3,0 5,1 7,2zm-106.000015,-1c-1,0 -2,0 -2,-1l2,1zm400.999985,17c1,2 2,3 2,6c0,2 -2,-2 -2,1c0,2 7,7 10,10c1,1 2,0 2,0c5,8 8,17 12,26c-1,0 -5,2 -5,-1c0,3 1,2 2,3l0,5c-2.950012,0.419983 -3.77002,0.839966 -3.72998,0.969971c0.059998,0.160034 1.72998,-0.23999 1.72998,-1.969971c0,-2 -7,-16 -10,-24l-2,2c2,3 3,7 4,10c-1,0 -1,-2 -4,-3c0,1 -1,0 -1,2c0,3 2,3 1,5c0,-2 -2,-5 -2,-8c0,-2 1,0 2,-1c-2,-1 -3,-2 -5,-4c-1,0 -2,0 -3,1c0,0 1,2 2,1l-1,1c-2,-1 -5,-2 -7,-4c0,0 1,2 1,-1c0,-2 -3,-1 -5,0c1,-3 -1,-10 -1,-10c0,-3 1,-2 2,-3c-1,-1 -2,-1 -3,-1c0,-3 1,-5 1,-6c1,1 2,1 4,1c-3,-2 -3,-4 -6,-3c0,0 2,1 2,-1c0,-3 -1,-1 -2,-1c1,-3 6,-9 6,-12c0,-2 -5,-6 -6,-9c7,6 9,13 14,19zm-52.999939,-17c0,0 -3,2 -3,-1c0,-2 1,-1 2,-1c0,0 1,1 1,2zm-235.000031,1l-4,0c0,0 0,-1 -1,-2c0,0 2,0 2,-1c0,1 2,2 3,3zm-76,-1c0,0 0,-1 -1,-2c1,0 3,-1 8,-2c-1,1 -4,3 -7,4zm179,-3l3,-3c0,1 -2,3 -3,3zm-182,-2c-4,0 -15,10 -21,14c3,-3 8,-7 13,-11c-1,-1 -1,-2 -3,-2c-3,0 -13.000015,4 -19.000015,7c-1,-1 -1,-2 0,-3c0,0 0,1 1,2c1,-2 3,-5 6,-5c2.000015,0 0,2 2.000015,2c3,0 7,-3 11,-5c8,0 9,1 10,1zm349.999969,2l0,7c-1,0 -2,-1 -1,-1c0,0 1,-1 1,-2c-2,-1 -5,0 -7,0c1,-2 4,0 4,-3c0,-2 -2,0 -2,-2c0,-3 1,-3 1,-3c2,1 2,3 4,4zm-292.999969,-3c-7,3 -28,-1 -25,9c2,-1 3,-2 4,-3l3,0c-2,2 -5,4 -5,7c0,2 1,1 2,1c-5,1 -7,7 -6,14c-1,-1 -2,-3 -2,-5c0,-3 1,0 1,-1c0,-3 0,-7 1,-10c0,-1 1,0 1,-3c0,-2 -2,0 -2,-3c0,0 4,0 2,-4c7,-1 20,-3 23,-3c2,0 2,1 3,1zm255.000031,2c0,-1 0,-4 1,-4c0,1 -1,3 -1,4zm53.999939,-5c-1,0 -2,-1 -3,-1c1,0 3,0 3,1zm-182.999969,-1c1,0 3,-1 4,0c-1,0 -3,1 -4,0zm-85,0c-1,0 -2,1 -3,2c2,1 3,2 6,2c2,0 8,-3 10,-3c3,0 4,1 5,1c0,1 -1,3 -3,4l0,2c1,1 2,0 3,0c-1,2 -3,5 -5,6c0,1 0,2 1,3c1,-1 1,-2 2,-2c0,0 -4,2 -2,6c2,0 2,-4 4,-4c3,0 0,2 3,2c2,0 4,-4 4,-6c0,0 1,1 0,2c1,1 3,2 4,3c0,2 1,3 1,6c0,2 3,0 3,2c0,3 -2,2 -2,5c0,2 1,2 3,3c-1,2 -2,5 -3,8c3,-2 5,-4 7,-7c2,10 5,5 5,12c0,2 2,14 2,16c0,3 3,2 3,5c0,2 -1,0 -2,1c0,0 1,1 2,1c-1,0 -2,-1 -2,1c0,3 2,-1 2,2c0,2 -2,-1 -2,2c0,2 2,1 2,3c0,3 -2,-1 -2,2c0,2 2,1 2,2c-1,0 -2,0 -3,1c0,0 2,-2 2,1c0,2 -2,-2 -2,1c0,2 2,2 3,2l-2,0c0,1 -1,1 -1,3c0,3 1,1 1,4c0,2 1,1 2,1c-3,1 -4,9 -4,11c0,3 2,2 2,5c0,2 -2,0 -3,1c1,1 3,0 3,2c0,3 -1,1 -2,2l2,2c-1,1 -2,0 -2,3c0,2 2,-2 2,1c0,2 -1,2 -3,3c1,1 2,2 3,2c-1,4 -1,6 -2,8l2,2c-2,2 -1,5 -2,8c-1,-1 0,-1 -3,-1c-2,0 -2,1 -4,1c2,-2 2,-4 4,-5l-2,-2c1,-1 2,-3 3,-4l-1,-7c-3,2 -6,6 -6,9c0,2 1,1 2,1c-2,0 -4,2 -5,3c1,-2 0,-5 0,-7c0,-3 -2,-1 -3,0c0,-5 -2,-13 -2,-16c0,-2 -2,0 -2,-2c0,-3 2,1 2,-1c0,-3 -1,-1 -2,-2l0,-4c0,-3 3,-10 3,-12c0,-3 4,-7 7,-11c-1,-1 -1,-2 -2,-4c-5,2 -7,15 -11,19c1,1 2,1 3,1c-1,0 -2,1 -4,1c0,-1 0,-3 -1,-4l2,-2c0,0 -2,1 -2,-1c0,-3 2,0 2,-3c0,-2 -2,-2 -3,-3c-1,-5 -1,-10 -2,-15c0,-1 -2,-1 -2,-3c0,-3 2,-2 3,-3c-1,-1 -4,-1 -5,-2c0,-1 3,-2 3,-4c0,-3 -2,1 -2,-1c0,-3 2,0 3,-1c0,0 -1,-1 -2,-1c0,-1 1,-1 2,-2c-7,-5 -7,-7 -7,-9s-2,0 -3,0c1,-1 2,-1 2,-3c0,-3 -1,-2 -2,-2c0,0 1,-2 1,-4c0,-3 -3,-2 -3,-4c0,-3 2,1 2,-1c0,-3 -5,-5 -7,-7c0,0 1,0 2,-1l0,-4c-1,-1 -2,-1 -3,0c0,-2 -2,-4 -1,-7c-1,0 -3,1 -3,0c-2,-4 -9,-8 -9,-12c0,-3 -4,-2 -6,-2c4,0 9,2 12,2c2,0 3,-2 3,-4c1,0 3,1 5,1zm96,-3c0,1 0,2 1,3c0,0 1,-1 1,-2c0,3 -3,0 -1,8c2,-1 3,-1 4,-2c0,0 1,1 2,1c0,0 -1,0 -2,1c1,1 -1,3 2,3c2,0 2,-1 3,-2c0,1 -1,2 0,3c-2,-1 -4,-1 -6,-1c-3,-3 -6,-3 -10,-1c1,-4 3,-8 3,-11l3,0zm-258.000015,-2c1,1 1,3 0,3l0,-3zm373.000046,0c0,0 1,-1 1,-2c0,1 0,2 -1,2zm-123.000031,-1c-2,0 -2,1 -2,2c-1,-1 0,-2 0,-3c0,0 1,1 2,1zm-4,-1l-3,0l3,0zm-93,1l1,-1l-1,1zm105,0c-2,0 -4,-2 -6,-3l6,3zm108.000031,10c-1,-6 -3,-13 3,-18c-1,8 -2,13 -3,18zm40.999939,-13c-2,1 -3,3 -3,6c0,2 1,5 1,8c0,2 1,2 2,2c-1,1 -3,2 -4,2c-1,-6 -1,-16 -1,-18c0,-3 -1,-4 -2,-6c3,1 4,4 7,6zm0,-5c0,-1 0,-2 1,-2c0,0 -1,1 -1,2zm-164.999969,0c3,0 7,2 10,3c-1,1 -3,-1 -5,-1c-4,0 -16,11 -16,12l2,2c3,-4 6,-6 9,-6c2,0 3,1 4,2c-3,2 -6,6 -9,8c-1,1 -4,3 -7,4c1,1 2,2 3,2c-2,1 -5,3 -8,5c0,0 0,-1 1,-2l-2,-2c2,-1 3,-3 3,-6c0,-2 -1,-2 -2,-1c0,-8 10,-9 11,-18c0,1 0,2 3,3c0,0 -1,0 -1,-2c0,-3 4,-4 6,-5l-2,2zm20,-3c0,0 -1,1 -1,0l1,0zm142.999969,1c0,-1 1,-3 1,-4c0,1 0,3 -1,4zm-401.999985,-1c0,2 -6,3 -10,5c0,-1 -2,-5 0,-5c3,0 0,2 2,2l3,0c1,-1 2,-3 1,-4c1,0 3,0 5,-2c0,1 -1,1 -1,4zm-9,-4c1,0 1,-2 2,-2c0,1 -1,2 -2,2zm4,0c0,-1 1,-3 2,-3c0,1 -1,2 -2,3zm15,-4l-2,-1c2,0 5,-1 8,-2c-2,2 -4,2 -6,3zm-129.000015,32c0,0 -1,0 -1,-2c0,-3 8,-23 11,-34c-3,12 -7,25 -10,36zm521,-28l-2,2c0,-1 -1,-3 -2,-4c0,0 0,-8 1,-8c1,3 1,6 3,10zm-399.999985,-4c-1,0 -2,1 -4,1c-1,-2 0,-2 0,-5c0,-2 3,-2 4,-2c0,1 1,2 0,6zm56.000015,-5c1,1 0,2 3,2c2,0 -2,-2 1,-2c2,0 0,1 1,2c1,-1 1,-3 1,-5c1,0 5,-1 7,0c-2,0 -2,1 -3,6c0,0 -1,-2 2,-2c2,0 0,1 1,2c1,-1 1,-2 1,-4c1,0 1,-1 4,-1c2,0 11,3 16,5c-1,1 -2,3 -3,5l1,4c2,-2 3,-5 5,-7l3,0c0,0 1,-1 1,2c0,2 -2,3 -1,6c1,-2 3,-4 6,-4c1,0 2,4 5,2c-1,2 -3,5 -4,7c1,1 4,1 5,0c0,0 -1,-1 -2,-1c1,0 3,-1 3,-2c1,1 1,0 1,3l1,1c1,-1 2,-2 4,-2c3,0 4,1 4,1s-1,0 -2,1c6,2 13,5 19,6l-9,3c-7,0 -14,-1 -21,-1c-7,1 -21,3 -23,3c-3,0 -12,-4 -14,-4c-3,0 -10,2 -13,2c-2,0 -10,-2 -13,-2c-2,0 -11.000015,1 -14.000015,1c-1,0 -24,16 -24,16c-3,0 -1,-2 -2,-2l-2,2l3,3c-5,4 -10,6 -13,10c-6,7 -9,12 -16,16c1,0 2,-1 0,-3l-2,2c0,-2 1,-4 4,-4c1,0 2,-2 3,-3c0,-1 1,-1 1,-3c0,-3 3,-1 5,-2c-1,-1 -2,-1 -3,-1c2,-2 5,-7 5,-12c4,-5 8,-12 13,-19l0,-1l-2,2c2,-4 4,-8 5,-11c1,-4 10,-7 13,-9c2,-1 5,-2 6,-5c2,0 4,-1 6,-1c3,0 3,3 6,3c2,0 3.000015,-1 5.000015,-2c4,-1 6,-5 11,-4c1,0 1,-1 1,-2c2,0 7,-2 7,0c0,3 -2,2 -3,3zm-35.000015,-2c0,0 0,1 -1,2c-1,-1 -3,-1 -5,-1l1,-3c1,0 3,1 5,2zm110.000015,5c0,0 -1,-1 -2,-1c2,-3 3,-6 6,-8c0,2 -2,6 -4,9zm264.999969,-6c0,0 -1,-1 -2,-1c1,-1 1,-2 1,-3c0,1 1,3 1,4zm-308.999969,-2c0,0 -1,-1 -2,-1c0,0 1,-1 1,-2c0,1 1,2 1,3zm-5,-1c-1,0 -3,-1 -4,-2c1,0 3,1 4,2zm-55.000015,2l-3,0c-1,-1 -6,-4 -2,-4c1,2 4,3 5,4zm-22,-5c0,1 -1,1 -1,0l1,0zm15,-1c-1,0 -3,-1 -4,-2c1,0 3,1 4,2zm71.000015,-3c-1,1 -2,1 -3,2c0,-1 0,-3 1,-3c0,0 1,1 2,1zm5,5c0,3 -2,3 -4,4l-3,0c0,-1 0,-2 -1,-3c2,-2 6,-4 8,-8c1,2 0,5 0,7zm-11,-6c1,1 -1,3 0,5c-1,-1 -4,-2 -6,-3l0,-3c3,0 4,1 6,1zm-87.000015,-1c0,1 2,1 3,1c0,1 -1,2 -2,3c-1,-1 -2,-1 -2,-4l1,-2c0,0 1,0 2,1c0,0 -1,0 -2,1zm-2,-1c0,-1 0,-2 1,-2c0,0 -1,1 -1,2zm80.000015,0c1,-1 1,-3 2,-2c-1,1 -1,2 -2,2zm16,0c0,-1 1,-3 3,-4c-1,1 -2,3 -3,4zm-99.000015,-3c-1,1 -1,-1 -2,-1c0,0 1,0 2,1zm86.000015,-1c2,0 2,-1 2,-2c0,1 -1,3 -2,2zm10,-3c0,2 -2,-2 -2,1c0,2 3,-1 3,2c0,2 -1,0 -2,1c0,0 1,1 2,1c-1,0 -3,1 -2,2c-1,0 -2,-1 -1,-2c-2,0 -2,-1 -3,2c0,-3 2,-6 4,-9c0,0 1,-1 1,2zm-200.000031,22c4,-8 7,-16 12,-24c-4,7 -6,18 -12,24zm321.000031,-16c0,-3 5,-8 10,-8c-4,2 -7,6 -10,8zm-142,1c0,3 1,2 2,3c-5,0 -6,2 -18,2c4,-3 12,-8 11,-11c1,-2 1,-3 2,-5c5,5 3,9 3,11zm-77.000015,-10c2,0 1,-1 1,-2c0,0 1,1 2,1c-1,2 -5,3 -5,6c0,1 4,9 7,10l-2,0l0,7c0,5 -5,6 -10,10l1,0c0,0 -1,-1 -2,-1l3,-3c-2,-1 -5,-5 -5,-7c0,-3 2,1 2,-1c0,-3 -2,0 -2,-3c0,-2 5,-5 7,-5c0,-1 -2,-3 -3,-2c0,-1 -1,-1 -1,-3c0,-3 2,0 2,-3c0,-2 -1,-1 -2,0c0,-1 3,-1 3,-3c0,-3 -1,-1 -2,-1l2,-2c1,0 1,2 4,2zm-7,-3c-3,2 -3,11 -4,15c0,0 1,0 1,-2c0,-3 -3,-4 -3,-6c0,-3 2,0 2,-7l4,0zm-81.000015,2c0,-1 0,-2 1,-2c0,0 -1,1 -1,2zm179.000031,1l-3,0c0,0 1,0 2,-1c-1,-1 -1,-2 -2,-3c1,0 2,2 3,4zm-4,-6c0,-2 1,-2 2,-2l-2,2zm14,-1c-3,3 -6,5 -8,7c0,-1 2,-2 2,-4c0,-3 -1,-2 -2,-3c2,0 5,-1 7,-3c-1,1 0,2 1,3zm-30,-1c-2,0 -2,1 -3,0c1,-1 1,-2 2,-2c0,0 1,1 1,2zm-74.000015,-2l3,0c0,0 0,1 -3,0zm390.000046,1c1.999939,4 4.999939,6 4.999939,11c0,2 1,1 1,2s1,7 3,9c-6,3 -6,4 -6,7c0,15 2,9 2,28c1,1 2,-1 2,1c0,3 -2,0 -2,3c0,2 2,2 2,4c0,3 -2,4 -2,6c0,3 1,2 2,2c-1,0 -2,0 -3,1c1,1 2,2 3,1c0,0 0,1 -1,2c1,1 2,1 3,1c-7,3 -4,1 -6,10c1,1 4,0 3,1l1,1c0,6 0,15 1,19s2,11 2,14c0,2 3,2 3,5c0,2 -2,16 -4,24l2,2c-2,5 -4,13 -4,15c0,3 -2,4 -4,6c1,-3 2,-7 3,-11c-1,-1 -3,0 -4,0c1,-2 2,-5 3,-9l-2,-2c-1,3 -3.999939,8 -3.999939,11c0,2 2,2 2.999939,2c-2.999939,2 -4.999939,3 -1.999939,7c-1,0 -3,0 -5,1l3,-3l0,-3c-1,-1 -3,-1 -5,0c0,0 1,1 0,1l0,-1c1,-1 4,-1 6,-3c-2,-1 -3,-3 -6,-4c0,1 1,3 1,4c-1,0 -2,-1 -3,-2l-2,2c-1,-2 -2,-5 -2,-7c0,-1 6,-26 6,-29c0,-2 -1,-3 -3,-5c1,0 3,0 5,-1c-1,-1 -3,-1 -5,-2c0,0 2,1 2,-1c0,-3 -2,0 -2,-2c0,-3 3,-13 3,-16c0,-2 -1,-2 -2,-3c0,0 1,0 2,1l2,-2c-1,-1 -2,-1 -3,-2c2,0 4,-3 7,-5c-1,-1 -3,-2 -5,-3c1,-1 3,-4 3,-7c0,-2 -1,-1 -2,0c1,-2 4,-4 4,-6c0,-3 -2,0 -2,-2c0,-3 2,-4 2,-6c0,-3 0,-4 -3,-4c-2,0 -1,2 -2,2c2,-6 5,-14 5,-16c0,-3 -3,-2 -5,-3c2,-2 2,-6 3,-10c-1,-1 -1,-2 -3,-2c-3,0 -3,2 -3,4c0,-8 -1,-17 -1,-25l-2,-2c0,0 2,1 2,-1c0,-3 -2,-3 -4,-4c1,-3 1,-5 2,-7c3,-1 9,2 9,0c0,2 3,2 3,1zm-394.000046,3c-1,0 -2,1 -2,2c0,-1 -2,-1 -2,-3c0,-3 2,-3 3,-4c-1,1 0,3 1,5zm358.000046,-5c0,-2 1,-2 2,-2l-2,2zm-45,-2l-3,0l3,0zm44,-1c-1,1 -2,2 -2,3c0,-2 -2,-2 -3,-1c0,0 0,-2 1,-2l4,0zm-264.000031,3c-2,1 -4,2 -4,4c0,3 2,4 2,5c-3,-7 -5,-8 -10,-12c1,-1 10,0 12,0l0,3zm-91.000015,-2c0,-1 -1,-2 0,-4c0,0 0,2 2,2c0,1 -2,1 -2,2zm-80.000015,6l5,-10c-1,3 -3,7 -5,10zm234.000031,14l-3,0c3,-4 4,-9 4,-12c0,-5 -3,-8 -6,-12c3,0 6,0 6,1l-1,23zm214.000031,-28c-1,0 0,-2 1,-2s0,2 -1,2zm-372.000046,0c-1,-1 -3,-2 -1,-2c0,0 0,1 1,2zm306.000015,1c-3,-1 -6,-2 -8,-4c3,1 6,2 8,4zm-157,-3c-1,0 -3,0 -3,-1c1,0 2,1 3,1zm-7,0c0,0 -1,1 -1,2c-3,-1 -7,-1 -12,0c0,1 -1,2 -2,3c2,2 3,2 6,2c2,0 10,-2 13,-2c5,0 9,9 9,11c0,10 -8,20 -16,20c-2,0 -3,-2 -6,-2l-1,0c-1,1 -1,2 -1,2c-1,1 -6,1 -6,4c0,2 1,1 2,1c-1,1 -6,1 -7,0c2,0 2,-1 2,-2c0,-4 3,-7 3,-10c0,-2 -2,0 -2,-3c0,-2 2,1 2,-1c0,-3 -2,-10 -2,-12c0,-3 -3,-8 -5,-14l24,1zm-49,6c-1,0 -2,1 -4,1c-3,0 -3,-4 -5,-5c0,-1 2,-2 4,-3c1,2 3,4 5,7zm-13,-6c1,0 2,-1 3,-1c0,1 -2,1 -3,1zm-29.000015,-2l-3,0l3,0zm333.000046,-2l5,0l-5,0zm-303.000031,0c-1,0 -4,0 -4,-1c1,0 3,1 4,1zm-40.000015,-3c-8,2 -10,12 -14,20c0,0 -2,2 1,2c2,0 1,-1 1,-2c0,1 -2,1 -2,4c0,2 4,2 4,5c0,2 -2,1 -2,2c1,1 2,0 3,0c-1,3 0,7 3,10c-1,1 -1,2 -3,2c-3,0 1,-2 -1,-2c-3,0 -1,1 -1,2c-1,-1 -2,-2 -3,-2c0,0 1,0 2,-1c-1,-1 -11,-13 -11,-16s2,1 2,-1c0,-3 -3,-2 -4,-2c0,-1 2,-1 3,-2c-2,-2 -4,-3 -5,-3c1,0 3,0 5,-1c0,-1 0,-2 -1,-3l-2,2l-3,0l4,-4c0,-1 -2,-3 -3,-3c5,-2 10,-5 16,-7l11,0zm29.000015,0c1,1 3,2 4,2c0,0 1,0 1,1c-3,-1 -7,-2 -10,-3l5,-1l0,1zm39,8l0,2c0,3 6,10 6,13c0,2 -2,0 -2,3c0,2 1,4 3,6c-2,0 -4,1 -6,0c0,-1 1,-1 2,-2l-2,-2c1,0 2,-1 2,-3c0,-3 -1,-5 -2,-8l-4,0c-1,0 -1,2 -5,0c0,-1 -1,-2 -3,-3c3,-3 6,-3 9,-5c-3,-3 -6,-7 -9,-11c3,0 8,4 11,10zm-18,-9c2.399994,0 2.23999,-1.279999 2.079987,-1.279999c-0.039978,0 -0.079987,0.079987 -0.079987,0.279999l6,6c0,0 0,1 -2,1c-3,0 -7,-4 -8,-6c0,0 1,-1 1,-2c0,1 -1,2 1,2zm-27,0c-1,0 -3,-1 -5,-2c0,0 2,0 2,-1c1,1 3,2 3,3zm-9.000015,-3c-1,1 -2,0 -3,0l3,0zm45.000015,-2c-1,0 -3,0 -5,-1c1,0 3,0 5,1zm-98.000015,13c-1,-1 -3,-1 -3,-3c0,-3 12,-11 14,-11c-2,3 -10,9 -11,14zm33,-13c-5,3 -15,0 -19,7c0,0 -1,-1 -2,-1c5,-3 13,-8 15,-8c3,0 4,1 6,2zm24.000015,-2c-2,0 -4.000015,0 -6.000015,-1c2,0 5.000015,1 6.000015,1zm14,-2c0,0 1,-1 1,-2c0,1 0,2 1,3l2,-2c4,2 9,4 13,5l-2,2c-2,-1 -6,-3 -8,-3c-3,0 -2,1 -1,2c-2,-2 -6,-3 -9,-4l1,-3l2,2zm-17,-3c-1.000015,1 -3.000015,0 -5.000015,0l5.000015,0zm26,0c-1,-1 -4,-1 -4,-1c1,0 3,0 4,1zm-32.000015,-1c-1,0 -3,0 -4,1c0,1 2,2 4,2c-3,1 -6,1 -9,2c2,-2 5,-3 6,-6c1,1 2,1 3,1zm16.000015,1c-2,0 -5,0 -8,1c0,0 0,-1 -1,-2c1,-1 2,-2 5,-2c2,0 3,1 4,3zm185,1c-5,-2 -11,-6 -15,-9l15,9zm-362.000031,-18c0,0 0,1 -1,2c-1,-1 -6,-3 -2,-3c1,0 2,0 3,1zm56,-6c0,0 1,-1 1,2c0,-3 -1,0 -1,-2zm-73,12l-3.000008,0c0,-1 -1,0 -1,-3c0,-2 7.000008,-11 10.000008,-15c-3,5 -4,12 -6,18zm5,-20c0,0 1,-1 2,-1c0,1 -1,1 -2,1zm27,-9c0,0 -1,1 -2,1l0,-3c1,1 2,1 2,2zm-5,-2c1,-1 1,-2 2,-2c0,1 -1,2 -2,2zm74,-5c0,-1 2,-1 3,-2c0,1 -2,2 -3,2zm-26,4c0,3 -5,5 -9,6c7,-11 6,-6 15,-12c-2,7 -6,2 -6,6zm41,-6l-6,-1c1,0 3,0 4,-1c1,1 2,1 2,2zm-80,0c0,-1 0,-2 1,-2s0,1 -1,2zm105.000015,-5c0,0 1,-1 1,2c0,-3 -1,0 -1,-2zm-57.000015,1c-1,0 -3,1 -4,1l2,-2c0,0 1,1 2,1zm-13,-9c0,1 -1,1 -1,0l1,0zm-35,1c0,0 1,-1 1,-2c0,1 0,2 -1,2zm188.000031,-2c3,-1 7,-1 10,0l-10,0zm-138.000031,2c0,-1 1,-2 2,-3c0,1 -1,3 -2,3zm-12,-4c1,-1 2,-1 3,-1c-1,1 -2,1 -3,1zm64.000015,5c1,1 1,3 3,4c-3,1 -7,2 -9,2c-3,0 -1,1 -1,2c0,0 0,-3 -2,-3c-3,0 -2,2 -3,2c-1,1 -4,1 -7,1c-7,0 -8,-4 -14,-2c5,-5 13,-13 15,-13c2.999985,0 13,5 18,7zm118.000015,-7c-1,1 -2,1 -3,1c0,-1 1,-2 1,-3c0,1 1,2 2,2zm-188.000031,2c1,-1 4,-2 5,-4c-2,2 -4,3 -5,4zm21,0c2,-2 4,-4 6,-5c-2,2 -4,4 -6,5zm-25,-3c0,-2 1,-2 2,-2l-2,2zm188.000031,-1c0,-1 0,-2 1,-2c0,0 -1,1 -1,2zm-29,-1c-1,0 -3,1 -7,1c1,-2 3,-3 3,-3c3,0 3,1 4,2zm30,12l-4,0c-3,-8 -12,-8 -14,-16c5,5 12,11 18,16zm-170.000031,-15l2,-2c0,1 -1,2 -2,2zm-37,0c0,0 -1,0 -2,-1c1,0 2,-1 3,-1c0,0 0,1 -1,2zm97.000015,-2l2,-2c-1,2 -4,3 -4,6c0,2 1,1 2,1c0,0 0,1 -2,1c-3,0 -8,-2 -12,-3c4,-2 8,-4 12,-5l2,2zm-94.000015,-2c0,1 -1,1 -1,0l1,0zm7,2c-5,7 -11,14 -18,22l0,-4c6,-7 12,-14 17,-22c2,1 1,3 1,4zm-6,-4c0,-1 1,-1 2,-2c0,1 -1,2 -2,2zm242.000031,-2c-1,1 -2,2 -3,2c1,-1 1,-4 2,-4c0,0 0,1 1,2zm-58,3c-1,0 -7,-2 -7,-5c2,0 5,2 7,5zm-160.000031,-4c-6,3 -10,6 -12,9c0,0 1,1 0,2c0,1 -2,2 -4,3l0,1c1,1 3,0 5,0c-2,2 -5,2 -7,4c1,1 2,3 3,3c-2,4 -6,3 -8,6l3,3c4,-4 10,-9 12,-13c0,-1 1,2 -1,3c1,2 4,2 6,4c3,-3 6,-5 8,-6c5,-5 10,-13 15,-14c-1,2 -4,3 -4,6c0,2 -17,14 -25,22c-1,2 -6,3 -5,9c6,-5 10,-11 19,-15c-7,6 -14,14 -21,20l1,2c2,-1 4,-3 6,-3c-8,10 -21,15 -30,20c-4,2 -11,-2 -12,6c-1,0 1,-3 -2,-3c-2,0 -2,2 -3,3c1,-2 2,-3 2,-6c0,-2 -3,-2 -3,-4c0,-3 13,-17 20,-23c-2,-1 -4,-1 -6,-1c10,-5 22,-23 31,-34c3,-1 5,-4 10,-5c0,0 1,1 2,1zm73.000015,0c-2,0 -5,1 -8,3c1,-1 4,-3 8,-3zm-27.000015,3c-7,8 -26,25 -37,29c14,-11 37,-29 37,-31c0,-3 -1,-1 -2,-1l3,-3c0,3 0,5 -1,6zm-65,-4c0,0 -1,0 -2,1c0,-1 0,-2 1,-3c0,0 1,1 1,2zm185.000031,-4c-1,1 -1,3 0,4c1,-1 2,-3 3,-4c0,1 -2,1 -2,3c0,3 5,6 7,8c-4,-1 -9,-6 -11,-11l3,0zm-45,0l0,-1l0,1zm-138.000031,-1l0,3c0,0 0,-1 -1,-2c1,-1 3,-2 4,-1l-3,0zm106.000015,2c0,1 -5,3 -4,9c-1,0 -1,-1 -2,-2c-1,1 -1,2 -2,3l-7,0c1,-3 5,-6 5,-8c0,-3 5,-4 8,-6c0,1 2,1 2,4zm-31,-3c-3,2 -5,5 -8,7l0,-3c3,-1 5,-3 6,-5c0,0 1,1 2,1zm102.000015,-1c0,-1 0,-2 1,-2c0,0 1,1 -1,2zm-39,-1c-4,0 -13.000015,7 -13.000015,13c5.000015,1 6.000015,-2 7.000015,2c2,-2 8,-4 8,-6c0,-3 -2,1 -2,-2c0,-2 3,-3 3,-5c0,0 -2,2 1,2c2,0 1,-2 3,-2c0,1 1,1 2,2c-3,2 -4,6 -7,9l2,2c4,-8 3,-3 8,-5l-2,-2c0,0 1,0 2,-1c1,0 0,1 0,3c1,0 0,-1 2,-1c3,0 3,4 6,6c-3,0 -7,1 -12,1c0,1 -1,1 -2,2c1,1 0,2 2,2c3,0 6,-1 12,-1c-3,3 -18,6 -26,9c0,0 0,-2 1,-2c-6,0 -3,2 -6,2c-2.000015,0 -3.000015,2 -5.000015,2s-4,1 -4,-1c0,3 1,2 2,2c-2,0 -4,1 -7,1c-2,0 -4,-1 -6,-2c0,-2 6,-4 4,-8c-2,1 -3,4 -6,6c0,0 -1,-1 -2,-1c1,-2 2,-4 4,-5c0,0 0,-1 -2,-1c-1,0 -8,2 -5,4c0,1 1,1 -2,1c-2,0 -6,-2 -10,-3c1,-2 5,-5 7,-5c3,0 1,1 2,2c1,-1 1,-2 1,-3c3,1 5,-1 8,-3c-1,-1 -2,-2 -3,-2c4,-3 8,-6 11,-10c1,0 2,0 3,1c-3,1 -6,6 -6,11c2,-1 1,-5 4,-5c2,0 -2,2 1,2c2,0 0,-3 3,-3c2,0 2,1 3,2l2,-2c0,0 -1,-1 -2,-1c4,-2 8.000015,-6 12.000015,-8l4,1zm-15.000015,-1c-1,2 -3,2 -5,3c0,-1 2,-2 2,-3l3,0zm-48,1c1,-1 1,-2 2,-1c0,0 -1,1 -2,1zm-64.000015,-1l-1,-1l1,1zm-8,-1c1,0 3,-1 3,0l-3,0zm109.000015,-2c0,0 -1,1 -1,0l1,0zm-33,1c0,0 0,1 1,2c0,0 -1,1 -2,1c1,-1 1,-2 1,-3c1,0 3,-1 4,-1c-1,1 -2,1 -4,1zm56.000015,-1c-2,0 -5,1 -9.000015,2c0,0 0,-1 1.000015,-2c-2.000015,-1 -5.000015,-2 -7.000015,-3c1,0 1,1 3,1c3,0 3,-2 5.000015,-2c3,0 5,2 7,4zm-123.000031,-2c1,0 2,-1 3,-2c0,1 -2,2 -3,2zm89.000015,-2c-2,1 -4,1 -6,1c1,0 3,-2 5,-3c0,0 1,1 1,2zm-34.000015,4c-3,0 1,-2 -1,-2c-3,0 -17,17 -26,27c4,-12 24,-31 32.999985,-30c-1.999969,1 -3.999985,5 -5.999985,5zm30.000015,-8c0,1 -1,1 -1,0l1,0zm34.000015,-2c1,-1 2,0 3,0l-3,0zm18,-2c1,2 8,4 9,8c2,0 4,1 6,1c-1,1 -2,0 -2,2c0,3 2,-1 2,2c0,2 -2,-1 -2,1c0,3 2,2 2,3c0,0 -1,1 -1,2c-2,-1 -5,-3 -8,-5c0,0 1,0 2,1c1,-1 2,0 2,-3c0,-8 -7,-5 -11,-8c1,0 2,-3 -1,-3c-2,0 -1,1 0,2c-2,-1 -5,-2 -8,-3c2,0 4,-1 7,-1c2,0 3,2 3,1zm-32.000015,0c1,0 3,-1 6,0c-1,0 -5,1 -6,0zm68.000015,4c-2,1 -4,2 -4,5c0,2 2,4 2,4c-2,-2 -4,-5 -4,-8c0,-2 2,-1 2,-4c0,-2 -2,-2 -2,-3c2,1 4,4 6,6zm-75.000015,-2c0,2 -6,3 -7,4c0,-1 1,-1 1,-3c0,-3 -1,-3 -2,-4c3,-1 5,1 7,1c0,0 1,-1 1,2zm129.000015,-5l-3,0l3,0zm-4,-4c0,1 -1,2 -1,3c0,-1 -2,-1 -3,-2l2,-2c0,0 1,1 2,1zm-91,4l-6,0c-1,-1 -1,-2 -2,-3l-3,3c1,-2 3,-3 4,-5c2,1 5,3 7,5zm-12,-6c-2,2 -5,3 -8.000015,3c-2,0 -3,-1 -4,-1c2,-1 3,0 5,0c3.000015,0 2.000015,-1 2.000015,-2l5,0zm-61.000015,6c0,-1 0,-7 5,-7c-1,2 -3,5 -5,7zm79.000015,-3c-1,0 -3,-1 -5,-2c0,-1 1,-2 1,-3c0,2 2,3 4,5zm-53.000015,-2c-1,0 -2,0 -3,-1c1,-1 3,-2 3,-3c1,1 1,3 0,4zm34.000015,-3c-1,0 -6.000015,1 -7.000015,0c0,0 1,0 2,-1c-1,-1 -6,-2 -2,-3c2,1 5.000015,2 7.000015,4zm-31.000015,-6c0,1 -2,3 -2,3l-1,-1c0,0 2,1 2,-1c0,-3 -2,1 -2,-1c0,-3 1,-1 1,-2c0,1 1,2 2,2zm99.000015,2c2,0 2,1 5,1c0,1 -1,1 -2,2l2,2c1,-1 1,-3 4,-3c2,0 3,1 3,1c1,2 1,4 1,6c1,1 3,1 3,4c0,2 -1,3 -2,4c1,1 2,1 3,0c0,0 1,-1 1,2c0,2 -3,4 -3,7c0,2 -3,1 -5,2c1,2 1,4 -1,6c0,0 2,2 6,3c-1,-1 -2,-2 -2,-4c0,-3 5,-8 8,-11l-2,2c0,1 2,3 3,2c3,4 6,14 7,19c10,12 19,27 30,38c2,3 8,3 11,6c4,2 8,8 14,11c10,6 19,16 29,22c3,3 8,5 12,6c2,1 6,0 9,1c5,2 11,4 17,8c1,1 2,5 5,6c1,1 5,2 7,1c0,0 0,1 -1,2l18,6c-2,1 -4,1 -6,0l-2,2c0,1 1,2 2,2c9,1 18.000031,3 27.000031,4c19,-1 20,-1 21,-1c7,-2 15,-3 23,-5c-2,2 -2,5 -2,8l-2,2c1,1 1,3 3,5c-1,1 -3,1 -4,2c1,4 3,2 7,2c-2,6 2,7 2,11c0,2 -2,-2 -2,1c0,2 3,1 3,4c0,2 -1,0 -2,1l2,2c-1,0 -3,-1 -1,7c-1,-1 -2,-1 -3,-1c-1,1 -1,2 -2,3c1,4 0,9 0,12c0,2 2,20 2,22c0,3 -1,9 -2,12c-1,0 0,-2 -1,-4c0,-1 -2,-1 -4,-2c0,-3 -2,-8 -2,-10c0,-3 -2,-4 -1,-8c-1,0 -3,-1 -4,-1c-1,6 0,12 0,17l15,88c-3,16 -25,28 -39,29c-2,0 -2,2 -5,2c-2,0 -5,-1 -7,-2c-1,1 -1,2 -2,3c9,7 6,8 14,8l11,0c-5,5 -15,22 -22,27c0,1 -1,1 -2,1c-5,8 -11,12 -18.000031,17c-3,0 -8,0 -10,2c-8,4 -14,11 -21,14c-20,10 -58,28 -61,28c-6,0 -4,-7 -4,-7c0,-2 -2,-3 -3,-4c0,-2 0,-7 -2,-9c1,-16 0,-17 0,-18c2,-3 4,-8 4,-10c0,-3 -2,-1 -2,-3c0,-3 4,-4 4,-7c0,-2 -1,-1 -2,0c1,-2 2,-5 3,-6c0,-2 1,-2 1,-5s8,-7 8,-12s19,-8 22,-8c2,0 3,1 4,0c0,0 -1,2 2,2c2,0 2,-2 3,-3c2,1 5,0 8,0c0,0 38,-19 38,-25c0,-1 22.000031,-16 22.000031,-30c0,-3 2,-6 2,-9c0,-2 -3,-11 -3,-13c0,-3 -6,-18 -11.000031,-26c-3,-6 -9,-12 -11,-18c-5,-11 -13,-33 -13,-35c0,-3 -5,-3 -5,-5c0,-3 1,0 2,-1c-2,-1 -4,-4 -7,-5c-5,-1 -14,-3 -16,-3c-6,0 -13,5 -18,10c0,0 1,-1 1,1c0,3 -3,2 -5,4c-4,11 -10,20 -15,33c0,0 -1,0 -2,1c-5,-10 -15,-25 -15,-28c0,-2 1,-1 1,-3c0,-3 16,-17 23,-28c4,0 4,-5 7,-7c5,-2 8,-7 12,-11c5,4 8,15 14,21c3,-2 5,-5 8,-9c-1,-2 -5,-5 -6,-8c-2,-3 0,-9 -5,-11c-3,-1 -6,-1 -9,-2c1,0 2,0 3,1c1,-1 2,-3 2,-4c-1,-1 -1,-2 -4,-2c-5,0 -20,8 -22,13c-2,4 -4,8 -7,12c-5,7 -16,17 -20,22c0,0 -1,1 2,1c2,0 3,-3 5,-3c-5,4 -3,4 -11,9c0,0 0,1 1,3c-1,0 0,-1 -3,-1c-2,0 -1,1 -1,2c0,-1 0,-2 1,-3c-2,0 -2,-1 -3,2c-2,0 -5,-4 -7,-4c-3,-1 -8,-1 -10,-1c-3,0 -8,1 -12,2c-1,1 -1,3 -3,3c-3,0 -5,-2 -6,-4l-10,0c0,0 -1,0 -1,-2c0,-3 3,-4 4,-7c-1,-1 -1,-2 -3,-2c-3,0 -4,3 -6,5c1,1 2,1 3,3c-6,-4 -14,-8 -21,-14c1,0 0,-1 2,-1c3,0 7,2 9,2c3,0 12,-2 18,-3c-2,1 -3,2 -3,4l0,4c1,1 0,2 3,2c4,0 12,-17 12,-17c4,-1 8,-3 12,-5c0,-2 -2,-5 -4,-5c-3,0 -5,2 -7,2c6,-13 2,-12 2,-21c0,-2 2,-3 3,-4c-2,-3 -7,-5 -9,-4c0,-1 2,-2 3,-3c-5,-3 -22,-6 -28,-6c-3,0 -10,2 -12,2c-7,0 -7,-3 -15,-11c-3,-2 -8,-3 -10,-5c-12,-6 -26,-9 -38,-9c-3.000015,0 -23.000015,2 -25.000015,2c-3,0 -6,0 -7,1c-7,3 -14,6 -19,9c-6,3 -10,9 -13,14c-3,3 -4,9 -4,12c0,2 -1,0 -2,1c0,4 -3,11 -3,13c0,3 3,20 3,23c0,2 2,3 3,6c3,7 6,15 9,23c0,1 3,2 5,3c-2,2 -3,4 -4,6s-3,3 -6,5c-4,11 -10,30 -10,32c0,3 -1,6 -2,9c1,1 3,0 5,1c-1,0 -2,0 -3,1c0,0 1,1 2,1c-1,1 -1,2 -2,3c-1,-1 -1,-2 -3,-2c-3,0 -1,0 -3,1c0,1 0,3 -1,5c-13,11 -27,19 -35,32c-4,5 -7,13 -7,19c0,3 -3,9 -3,12l0,11c-3,-2 -6,-10 -9,-14c-4,-7 -5,-9 -5,-12c0,-4 0,-5 4,-7c-1,-1 -3,0 -4,0c-3,-11 -6,-24 -10,-35c-2,-7 -3,-21 -3,-23c0,-3 3,-41 3,-43c0,-3 11,-31 17,-47c3,-8 5,-17 9,-24c2,-5 8,-11 8,-14c0,-2 -1,-2 -2,-2c2,-3 11,-26 11,-31c0,-3 -1,-5 -2,-8c4,-2 7,-5 11,-9c2,-1 6,1 6,-3c0,-3 16,-4 24,-5c3,0 7,1 11,0s13,-2 16,-2c2,0 5,-2 8,-2c5,-1 11,1 15,0c3,0 6,-4 8,-4c11.000015,-2 35.000015,-3 38.000015,-3c9,0 25,1 33,4c4,2 9,6 13,10c2,1 5,4 6,6c1,1 4,3 4,0c0,-7 -14,-15 -18,-18c4,1 5,1 8,1c2,0 6,5 9,6c0,0 1,0 1,-2c0,-3 -2,-3 -4,-3c1,-1 4,-2 6,-6c-5,0 -10,-5 -14,-4c1,1 3,3 3,4c-1,-1 -3,-2 -4,-3c0,-1 3,-1 3,-4c0,-2 -2,-2 -2,-3c2,0 5,-2 5,-4c0,-3 -7,-11 -7,-11c-1,1 -1,0 -1,2c0,3 2,6 4,9c-6,-1 -9,-10 -9,-14c-1,0 -2,1 -2,2c0,-1 -2,-2 -2,-4c0,-3 2,1 2,-2c0,-2 -3,-6 -6,-10c0,-1 3,-1 3,-3c0,-3 -5,-8 -6,-11c1,-1 3,-1 3,-4c0,-2 -3,-6 -5,-9c2,-1 5,0 8,2c6,-2 9,4 9,4c3,0 -1,-2 2,-2zm-196.000031,5c2,-3 4,-7 6,-9c-2,3 -4,7 -6,9zm120.000015,-10c0,-1 0,-2 1,-2c-1,1 0,2 -1,2zm53.000015,-2c-9,-1 -15,0 -23,-4c10,1 17,3 23,4zm-62.000015,-5c1,1 1,0 1,2c0,3 -4,7 -7,11l2,2c2,-2 5,-7 7,-12l2,2c-1,0 -2,-1 -2,2c0,2 3,1 3,4c0,2 -2,-1 -2,2c0,2 2,2 3,2c-2,0 -5,0 -4,5c-1,0 -3,0 -4,1c1,1 2,1 2,2c-8,0 -9,2 -9,-2c0,-2 2,-2 0,-4c0,0 -1,1 -1,2c0,0 -1,-1 -2,-1c2,-7 2,-12 8,-18l3,0zm29.000015,-1c2,0 4,2 6,3c-2,0 -4,-2 -6,-3zm-19.000015,1c-1,0 -2,1 -1,2c-2,0 -5,-2 -5,-4c3,0 5,1 6,2zm-20,-3c-1,3 -3,6 -4,9c-2,-1 -3,-3 -5,-5c2,-1 1,-5 4,-5c2,0 4,1 5,1zm63.000015,-2c-1,-1 -4,-1 -4,-1c1,0 3,0 4,1zm-147.000031,2c0,2 1,3 4,5c0,-1 1,-1 1,-4c0,-2 -1,-1 -2,-1c1,0 3,-1 3,1c0,3 -3,7 -4,9l0,4c-1,-1 -2,-2 -4,-1l3,3c-3,3 -5,7 -10,12c-1,1 -2,4 -2,7c0,2 -5,3 -7,4c2,-4 2,-8 7,-10l-2,-2c3,-5 6,-11 9,-16l-3,-3c5,-4 3,-9 8,-13c1,1 -1,2 -1,5zm8,-5c0,1 -2,2 -1,3c-1,1 -2,1 -2,-2c0,-2 0,-1 1,-2c0,1 1,2 2,1zm123.000031,3c0,1 -1,2 -1,3c-5,-2 -11,-6 -16,-8l4,-1c4,2 9,4 13,6zm-16,2c-4,0 -13.000015,-7 -15.000015,-10c3,-2 13.000015,5 15.000015,10zm-18.000015,-3c1,0 2,-1 4,-1c3,0 10.000015,7 17.000015,10c5,2 12,5 19,8c1,0 1,3 1,5c1,1 2,1 2,2c0,0 1,1 0,3c1,0 1,1 3,1c3,0 3,-3 4,-4c-3,-2 -4,-5 -6,-9c0,0 -2,2 1,2c2,0 2,-2 5,-2c2,0 4,1 6,1c-2,1 -4,1 -6,0c-1,1 -1,2 -2,3c1,1 0,1 2,1c3,0 7,-2 10,-4c2,2 5,4 5,7c0,2 0,1 -1,2c0,-1 -3,2 -3,-1c0,3 1,2 2,3c-4,1 -8,-3 -5,-7c-1,0 -3,-1 -4,-1c-1,2 0,5 0,8c0,2 1,2 3,3c-1,0 -2,0 -3,1c0,0 4,1 2,4c-1,1 -1,2 -2,3c3,2 5,5 6,8c0,0 0,1 -2,1c-3,0 -6,-7 -10,-11c1,-2 0,-2 0,-5c0,-2 -2,-1 -3,-3c-1,-1 -2,-1 -3,0l2,2c0,0 -1,1 -2,1c-1,-1 0,-3 -1,-4s-4,-2 -7,-2c0,0 1,0 1,-2c0,-3 -3,-2 -3,-4c0,-3 2,1 2,-1c0,-3 -5,-3 -8,-4c0,1 -1,1 -1,4c0,2 2,3 2,5c-9,-5 -6,-8 -15,-9c-1,-1 -2,-3 -4.000015,-4c0,-1 3.000015,1 3.000015,-2c0,-6 -8.000015,-8 -10.000015,-8c-3,0 -5,1 -7,2c0,-1 0,-3 -1,-4c-2,1 -5,1 -8,3c-1,-1 -2,-1 -3,-1c3,-6 11,-4 17,-7c0,2 1,4 1,7zm-27,-7c0,0 0,1 -1,2l3,3l-2,2c1,1 3,1 3,4c0,2 -2,3 -2,5c1,1 2,1 3,0c0,2 -1,4 -1,7c0,2 -2,-1 -2,1c0,3 2,-1 2,2c0,2 -2,4 -3,6c0,-3 2,-11 -1,-13c-2,2 -1,6 -4,7c0,0 1,1 2,1c-1,2 -1,5 -1,7c0,5 -6,6 -7,6l-3,0c0,0 1,3 2,2c0,1 -1,2 -3,2l0,-5c1,0 2,-2 3,-3c0,1 0,2 1,3c2,-5 5,-11 7,-16c0,0 -1,-1 -4,-1c0,0 1,-1 1,2c0,2 -2,3 -2,5l-4,0c1,-1 1,-7 1,-7c1,-2 1,-4 1,-6c0,-3 4,-11 8,-16l3,0zm43.000015,-1c-1,0 -3,-1 -4,-2c1,1 3,1 4,2zm-31.000015,-2c0,0 0,1 1,2c-1,1 -4,4 -7,5l0,-3c1,-1 2,-2 3,-4l3,0zm8,-1c-1,1 -2,1 -3,2c-1,-1 -2,-1 -3,-1l2,-2c1,1 3,1 4,1zm-83.000015,7c0,-2 1,-5 2,-9c1,2 1,5 0,8c0,0 -1,1 -2,1zm68.000015,-5c-1,-1 -3,-3 -3,-4l8,0c-1,0 -3,2 -5,4zm-73.000015,5l-3,0c2,-4 4,-8 7,-11c-1,3 -2,7 -4,11zm90.000015,-12c3,1 6,3 7,4c-3,-1 -7,-2 -11,-4l4,0zm-7,0c-1,0 -2,0 -2,-1l2,1zm-5,-2l-1,0l1,0zm-72.000015,-3c1,-1 2,-1 3,-1c-2,0 -2,1 -3,1zm60.000015,2c2,0 4,1 6,1c-1,1 -2,2 -5,2c-2,0 -3,-1 -6,-1l1,-7c2,1 3,3 4,5zm-43.000015,-11c0,0 -1,-1 -2,-1c1,0 3,-2 5,-4c0,1 -2,3 -3,5zm-11,-8c0,0 0,-1 -1,-2c1,-1 3,-1 4,0c-1,0 -2,1 -3,2zm16,-3c0,2 -6,5 -9,8c-2,3 -3,9 -6,15c0,0 0,-1 1,-2l-2,-2c1,-1 3,-3 4,-5c-1,-1 -2,-1 -3,-1c4,1 7,-13 14,-15c0,0 1,-1 1,2zm28.000015,6l-2,2c1,1 1,2 2,3c1,-1 1,-2 1,-3l2,0c8,2 10,5 16,13l2,-2c0,1 -1,2 -2,3c-5,-3 -11,-10 -14,-10c-2,0 -3,3 -6,5c2,2 1,5 3,7c-3,2 -6,6 -8,8l0,3c-2,2 -4,4 -4,7c0,2 2,-1 2,2c0,2 -3,2 -3,5c0,2 1,2 3,4c0,0 1,0 1,-1c0,-3 2,-7 2,-9c0,-3 -2,-1 -3,-1c3,-3 6,-8 9,-13c1,0 1,-1 4,-1c2,0 2,1 3,1c-6,1 -7,9 -7,12c0,2 -2,2 -4,3c0,0 1,1 2,1c-1,1 -1,2 -2,2c0,0 0,1 -2,0c0,1 -1,2 -2,3c1,1 4,0 4,3c0,2 -4,4 -4,6c0,3 1,2 2,1c-3,3 -5,8 -5,11c0,2 2,2 2,3c-5,1 -14,10 -16,12c-3,3 -7,9 -12,12c-2,1 -4,1 -6,2c2,-2 4,-4 6,-7c-1,-1 -2,-1 -4,-1c-5,0 -9,7 -13,12c-1,-1 0,-2 0,-5c0,-2 -2,-4 -5,-4c-2,0 -2,2 -4,1c2,-1 3,-2 5,-3c0,-1 -1,-3 -2,-4c-2,1 -5,4 -8,5l4,-4c2,-5 6,-12 6,-15c0,-2 2,0 3,-1c-1,-1 -2,-1 -3,-1l2,-2c-1,-1 -2,-2 -2,-5c0,-2 3,-6 5,-10c2,-5 5,-15 5,-17c0,-3 6,-14 10,-20c1,1 1,0 1,3c0,5 -10,16 -7,22c8,-11 7,-23 19,-30l0,-3c-1,-1 -2,-1 -3,-2c-1,2 -3,5 -4,7c0,-1 -1,-1 -1,-3s5,-4 7,-11c1,0 2,-1 3,-1c1,1 0,3 0,7c4,-2 6,0 9,2c0,0 1,0 1,-2c0,-3 -2,-2 -3,-3c0,-2 2,-3 4,-4c-1,-1 -1,-2 -3,-2c-3,0 -3,2 -5,4c1,-5 2,-8 2,-10c4.999985,2 12,9 17,13zm-19.000015,-13c0,6 -4,3 -7,5c2,-2 3,-4 4,-6c1,0 3,-1 3,1zm-29,2c0,-1 2,-3 3,-3l-3,3zm19,1c-1,0 -2,0 -3,-1c1,-2 4,-3 6,-4c-1,2 -2,3 -3,5zm-9,3l-3,0c2,-2 4,-6 6,-8c-1,2 -2,5 -3,8zm-4,-12c-1,1 -3,0 -4,0c2,-1 4,-3 3,-6c1,0 3,1 4,1c-2,1 -5,3 -3,5zm29,-9c-1,1 -1,2 -2,3c1,1 1,0 4,0c3.999985,0 0,2 2.999985,3c7,5 16,8 24,12c-1,0 -2,-1 -2,2c0,0 14,14 19,16c24.000015,10 51.000015,20 76.000015,28c1,1 1,2 0,4c9,0 21,3 31,7c1,1 1,3 3,4c3,3 12,1 16,8s5,10 5,17c0,2 4,5 4,8c0,2 -2,-2 -2,1c0,2 6,12 9,20c0,0 1,2 1,5c0,2 20,26 21,26c2,0 1,-1 1,-2c2,3 6,4 6,7c0,2 5,4 8,4c16,14 39.000031,22 57.000031,32c6,3 12,8 20,11c9,4 32.000031,16 42.000031,16c3,0 16,-4 19,-4c2,0 -2,2 1,2c2,0 7,-3 11,-3c-1,-1 -3,-2 -5,-4c3,-1 6,-4 8,-4c3,0 -1,2 2,2c2,0 2,-2 2,-3c1,1 3,3 4,5c1,-2 5,-7 8,-7c2,0 2,3 5,3c2,0 1,-2 2,-3c1,1 0,3 0,4c8.999939,6 14.999939,7 14.999939,14c0,3 3,4 4,6c3,3 7,12 9,17c0,1 2,0 3,3c2,3 6,9 6,11c0,3 -1,2 -2,3c1,1 2,1 3,0c1,1 1,0 1,3c0,2 -1,2 -2,3c1,1 1,3 2,4c1,-1 2,-2 1,-3c1,-1 2,-1 2,1c0,3 -1,1 -2,2c1,1 2,1 2,1c5,11 12,22 16,33c1,-1 1,-3 1,-5c2,3 5,9 7,11c-2,1 3,4 -4,5c7,10 17,28 26,40c8,11 20,23 31,35c3,3 5,8 8,12c1,1 5,1 6,3c3,2 5,7 6,11c2,-1 2,-3 3,-4l0,4c-1,1 -2,1 -2,4c0,2 6,11 6,13c0,3 -2,3 -2,6c0,2 2,2 3,2l-3,0c0,1 1,12 -3,10c0,4 -1,8 -2,12c0,-1 0,-2 -1,-3c-8,9 -11,23 -25,32c-2,1 -5,0 -8,1c-3,0 -6,2 -7,2c-6,2 -17,-2 -22,6c0,-1 2,-2 3,-4c-8,-1 -23,0 -26,0c-2,0 -13,2 -20,2c-1,1 0,2 -3,2c-2,0 -6,-2 -9,-2c-2,0 -20.999939,4 -30.999939,4c-1,1 -3,4 -5,4c-3,0 -1,-2 -3,-2c-3,0 -17,11 -24,16c0,1 -2,0 -2,3c0,-3 -3,0 -5,0c-3,0 -10,6 -10,9c0,2 1,1 2,1c-2,1 -4,4 -5,5c-2,1 -12,12 -12,16c0,3 -9,8 -12.000031,11c-1,-1 -3,-2 -3,-3c-7,0 -15,7 -18,12c-1,1 -1,5 -3,6c0,1 -2,0 -2,3c0,2 1,1 2,1c-2,0 -6,-1 -6,2c0,2 1,1 2,1c-3,0 -7,1 -10,4c-3,2 -4,5 -7,7c-7,6 -15.000031,12 -22.000031,17c-9,7 -20,12 -31,18l-3,0c0,-1 1,-1 2,-2c0,0 0,-1 -2,-1c-3,0 -13,3 -18,5c-2,0 -3,1 -3,4c0,2 1,2 2,2c-4,3 -8,6 -13,9c0,1 0,2 1,3c1,-2 4,-3 7,-6c-1,2 -1,4 -3,6c-4,3 -11,9 -13,9c-3,0 -5,-1 -8,-1c1,-1 4,-2 6,-3c-1,-1 0,-1 -3,-1c-2,0 -6,4 -9,4c-2,0 -9,-5 -13,-6c-5,-2 -13,-3 -16,-3c-2,0 -21,3 -24,3c-2,0 -42,-2 -44,-2l-7.000015,0c-1,1 -1,2 -2,3l-1,-2c-5,0 -13,-1 -18,-2c-8,-2 -18,-5 -25,-7c-3,0 -5,-3 -7.999985,-3c-2,0 -1,1 0,2c-3,-2 -10,-6 -14,-6c-1,0 -1,4 -6,3c0,0 -1,1 -1,3l3,0c-1,0 -2,0 -3,1l2,2c-1,1 -4,3 -5,3c-4,1 -8,3 -12,5s-9,2 -15,3c0,2 1,4 0,7c-3,0 -7,2 -10,2c-2,0 -7,-5 -9,-6c-4,-2 -13,-2 -16,-8c-2,-2 -1,-10 -3,-10c-3,0 -5,2 -7,2c-3,0 -3,0 -5,-1c-2,-2 -10,-6 -12,-7c0,-3 -6,-17 -15.000008,-14l0,-9c0,-3 1,-4 1,-6c0,-3 1,-6 1,-9c1.000008,-5 6.000008,-13 6.000008,-16c0,-2 -5,-6 -5,-8c0,-3 -15.000008,-20 -17.000008,-20c-3,0 -1,2 -2,2c-2,-2 -3,-2 -3,-5c0,-2 1,0 2,-1l-4,-4c-1,-5 -5,-11 -8,-16c0,0 -1,0 -2,1c0,-1 1,-2 2,-3c-5,-1 -8,-10 -8,-12c0,-3 -14,-25 -14,-27c0,-3 2,1 2,-1c0,-3 -3,-4 -5,-7l2,-2c-4,-2 -4,-9 -6,-13c-1,1 -1,2 -2,3c0,-1 1,-3 2,-4c-1,-2 -2,-2 -3.999992,-4c-1,-2 -3,-11 -6,-11c0,-1 2,-1 4,-3c-1,-1 -3,-2 -4,-1c0,-1 2,-1 2,-4c0,-2 -2,0 -2,-3c0,-2 10.999992,-19 13.999992,-28c6,-5 12,-14 18,-19c3,-3 8,-4 12,-6c2,-2 3,-6 4,-9l3,0c0,1 0,4 -1,4c0,0 -1,1 2,1c2,0 6,-11 10,-16c3,-5 6,-10 11.000008,-14c0,-1 3,-2 5,-2c4,0 16,-2 16,-6c0,-3 -5,-29 -5,-31c0,-3 2,-6 2,-8c0,-3 -3,-4 -3,-6c0,-3 4,-16 4,-18c0,-3 1,-5 2,-6c6,-20 19,-44 24,-65c7,3 11,-15 13,-20l9,-27l-2,-1c-6,5 -15,12 -24,15c-3,1 -7,1 -9,2c-10,4 -15,8 -22,8c-2,0 -19.000008,-6 -19.000008,-13c0,-2 3,-6 4,-7c3.000008,-5 4.000008,-13 13.000008,-13c0,-1 -1,-2 -1,-3c1,0 1,1 2,2c1,-1 1,-3 1,-4c13,-16 20,-29 28,-43c12,-21 21,-49 34,-69c1,-3 2,-9 2,-11c0,-3 3,-7 3,-9c0,-3 1,-2 1,-3c2,-10 9,-27 17,-32c2,-2 9,0 12,0c2,0 5,0 8,-2c2,2 4,3 6,4z" clip-rule="evenodd" fill-rule="evenodd"/>
   <path id="svg_3" d="m340.000031,188c-1,0 -3,1 -4,0c-1,1 0,3 0,4c-2,-1 -5,-2 -7,-2c-3,0 -24,3 -36,5l-25,0c-4,0 -8,-3 -11,-3c-2.000015,0 -7.000015,2 -11.000015,3c2,-2 4,-5 8,-6c13.000015,-3 32.000015,-3 46.000015,-3c10,0 28,-3 30,-3c4,0 6,-1 10,5z" clip-rule="evenodd" fill-rule="evenodd"/>
   <path id="svg_4" d="m524.000061,330l1,-1l-1,1zm-7,-20l-1,0l1,0zm9,1c-1,0 -2,-2 -1,-2c0,0 0,1 1,2zm-17.000031,-33c-1,-2 -3,-4 -3,-6c0,-3 2,1 3,0c-1,2 0,4 0,6zm-2,-23c3,0 0,-2 3,-2c2.000031,0 3.000031,1 3.000031,1c0,1 0,2 1,3c-1,0 -3.000031,-1 -5.000031,-2l-2,2c3,3 7.000031,0 7.000031,4c0,2 4,4 7,4c0.329956,0.329987 0.439941,0.440002 0.439941,0.559998c0,0.220001 -0.439941,0.440002 -0.439941,2.440002s5,4 8,5c0,1 -1,3 -2,4c-2,-4 -3,-6 -7,-7l0,15c0,2 3,10 3,13c0,2 8,13 8,16c0,2 -2,0 -2,2c0,3 3,4 3,7c0,2 -2,2 -2,5c0,2 2,5 3,7l-1,4c-2,-1 -4,-6 -6,-6c-3,0 -2,2 -3,2c-1,-2 -1,-6 -1,-8c0,-3 -2,-5 -5,-7c1,0 2,0 3,-1c-1,-1 -3,0 -3,-2c0,-3 -2,-2 -3,-3c0,-4 -1,-11 -1,-13c0,-3 -5.000031,-7 -5.000031,-9c0,-3 2,1 2,-1c0,-3 -2,0 -2,-3c0,-2 2,0 2,-2c0,-3 -2,-1 -3,-2c-1,-4 -4,-10 -4,-12c0,-3 3,-3 3,-5c0,-3 -2,-2 -3,-3c0,-1 2,0 3,0c0,0 1,0 1,-2c0,-3 -7,-8 -7,-10c0,-3 1,-1 1,-2c2,1 4,5 6,5z" clip-rule="evenodd" fill-rule="evenodd"/>
  </g>
 </g>
</svg>